<?xml version="1.0" encoding="UTF-8"?>
<svg width="949px" height="949px" viewBox="0 0 949 949" version="1.1" xmlns="http://www.w3.org/2000/svg" xmlns:xlink="http://www.w3.org/1999/xlink">
    <!-- Generator: Sketch 57.1 (83088) - https://sketch.com -->
    <title>Group 28</title>
    <desc>Created with Sketch.</desc>
    <defs>
        <path d="M563.18,348.261 C554.957,384.635 540.162,416.966 522.033,444.047 C503.978,471.276 482.32,493.011 460.401,510.288 C449.3,518.78 438.163,526.26 427.058,532.654 C415.876,538.892 404.963,544.472 394.139,548.789 C388.809,551.146 383.418,552.951 378.227,554.864 C373.017,556.726 367.816,558.161 362.823,559.756 C357.742,561.045 352.825,562.401 347.999,563.502 C343.142,564.463 338.458,565.563 333.858,566.313 C315.484,569.509 299.13,570.531 285.155,570.422 C283.407,570.43 281.696,570.437 280.021,570.445 C278.348,570.372 276.711,570.3 275.11,570.229 C271.909,570.084 268.854,569.945 265.944,569.813 C260.147,569.257 254.92,568.827 250.296,568.269 C245.687,567.592 241.654,567 238.197,566.492 C234.752,565.919 231.911,565.276 229.623,564.846 C225.056,563.935 222.772,563.479 222.772,563.479 L222.729,563.469 C222.729,563.469 221.035,563.043 217.859,562.245 C216.272,561.845 214.314,561.351 212.013,560.771 C210.863,560.476 209.627,560.159 208.31,559.821 C207.008,559.424 205.624,559 204.162,558.553 C201.241,557.653 198.007,556.656 194.485,555.571 C191.021,554.315 187.273,552.956 183.27,551.504 C179.264,550.058 175.141,548.156 170.72,546.345 C168.499,545.459 166.295,544.387 164.037,543.291 C161.776,542.203 159.464,541.09 157.102,539.952 C138.301,530.66 117.659,517.173 97.817,500.04 C88.045,491.307 78.427,481.747 69.424,471.336 C60.528,460.837 52.188,449.598 44.638,437.832 C37.248,425.966 30.673,413.61 25.005,401.072 C19.461,388.474 14.951,375.686 11.253,363.111 C4.287,337.838 0.957,313.407 0.627,292.438 C0.612,289.816 0.599,287.249 0.586,284.74 C0.564,282.231 0.541,279.78 0.693,277.394 C0.954,272.624 1.004,268.084 1.416,263.845 C1.821,259.605 2.201,255.637 2.552,251.968 C3.082,248.322 3.569,244.973 4.01,241.947 C4.232,240.436 4.443,239.004 4.642,237.658 C4.902,236.322 5.146,235.07 5.373,233.905 C5.836,231.577 6.23,229.596 6.55,227.991 C7.19,224.78 7.532,223.067 7.532,223.067 L7.542,223.023 C7.542,223.023 7.968,221.33 8.766,218.154 C9.166,216.567 9.66,214.609 10.24,212.308 C10.535,211.158 10.852,209.922 11.189,208.604 C11.588,207.302 12.011,205.919 12.458,204.457 C13.358,201.536 14.354,198.301 15.439,194.78 C16.696,191.315 18.055,187.568 19.507,183.564 C20.953,179.558 22.855,175.436 24.666,171.015 C25.552,168.794 26.625,166.59 27.72,164.332 C28.808,162.072 29.922,159.759 31.059,157.396 C40.352,138.596 53.838,117.954 70.971,98.112 C79.705,88.339 89.264,78.721 99.676,69.719 C110.174,60.823 121.413,52.482 133.179,44.933 C145.045,37.542 157.4,30.967 169.939,25.299 C182.537,19.755 195.326,15.246 207.9,11.548 C233.173,4.582 257.604,1.252 278.573,0.921 C281.195,0.908 283.762,0.894 286.271,0.88 C288.78,0.864597265 291.231,0.835 293.617,0.989 C298.388,1.249 302.928,1.299 307.166,1.71 C311.406,2.116 315.374,2.496 319.043,2.847 C322.689,3.377 326.038,3.864 329.063,4.304 C330.576,4.527 332.007,4.738 333.354,4.937 C334.689,5.197 335.941,5.441 337.106,5.668 C339.435,6.131 341.415,6.525 343.021,6.844 C346.231,7.485 347.943,7.827 347.943,7.827 L347.987,7.837 C347.987,7.837 350.246,8.405 354.762,9.541 C357.014,10.133 359.855,10.771 363.214,11.73 C366.554,12.755 370.451,13.95 374.905,15.315 C379.321,16.794 384.229,18.648 389.704,20.632 C392.389,21.761 395.208,22.946 398.162,24.188 C399.638,24.811 401.147,25.448 402.69,26.099 C404.2,26.824 405.743,27.565 407.318,28.322 C419.989,34.217 434.324,42.156 449.552,52.923 C453.385,55.574 457.145,58.577 461.12,61.528 C465.008,64.592 468.867,67.927 472.904,71.271 C476.73,74.853 480.813,78.38 484.721,82.296 C488.59,86.251 492.686,90.194 496.488,94.609 C504.415,103.152 511.88,112.874 519.306,123.304 C526.595,133.844 533.446,145.377 539.833,157.81 C552.223,182.819 562.464,211.742 567.096,244.084 C571.856,276.323 571.354,311.875 563.18,348.261 C559.663,347.468 557.905,347.072 557.905,347.072 L552.63,345.883 L547.354,344.694 C547.354,344.694 545.597,344.298 542.079,343.506 C549.639,309.83 550.09,277.022 545.698,247.246 C541.433,217.375 531.951,190.654 520.511,167.53 C514.599,156.042 508.271,145.376 501.533,135.631 C494.658,125.997 487.773,116.997 480.438,109.109 C476.931,105.021 473.134,101.389 469.564,97.729 C465.956,94.106 462.176,90.857 458.648,87.538 C454.912,84.457 451.352,81.371 447.761,78.539 C444.083,75.822 440.618,73.038 437.076,70.592 C423.013,60.647 409.778,53.314 398.072,47.876 C396.618,47.175 395.194,46.489 393.801,45.817 C392.374,45.217 390.979,44.631 389.614,44.058 C386.887,42.909 384.283,41.812 381.804,40.767 C376.74,38.945 372.209,37.224 368.127,35.856 C364.009,34.593 360.406,33.488 357.317,32.541 C354.212,31.653 351.58,31.069 349.497,30.52 C345.319,29.464 343.231,28.937 343.231,28.937 L343.19,28.928 C343.19,28.928 341.605,28.613 338.634,28.024 C337.148,27.729 335.316,27.364 333.162,26.935 C332.085,26.724 330.927,26.497 329.691,26.254 C328.445,26.072 327.122,25.879 325.724,25.674 C322.927,25.266 319.831,24.814 316.46,24.321 C313.069,23.998 309.402,23.648 305.484,23.274 C301.567,22.888 297.374,22.857 292.968,22.608 C290.764,22.461 288.499,22.488 286.183,22.51 C283.865,22.521 281.494,22.533 279.073,22.545 C259.706,22.841 237.152,25.938 213.8,32.357 C202.185,35.783 190.366,39.945 178.72,45.066 C167.133,50.312 155.711,56.389 144.736,63.215 C133.863,70.201 123.474,77.913 113.766,86.129 C104.145,94.454 95.315,103.345 87.238,112.367 C71.424,130.709 58.952,149.755 50.378,167.123 C49.328,169.305 48.301,171.441 47.297,173.529 C46.283,175.613 45.287,177.647 44.476,179.701 C42.811,183.789 41.039,187.59 39.708,191.294 C38.365,194.994 37.108,198.456 35.946,201.658 C34.945,204.914 34.025,207.905 33.195,210.606 C32.78,211.957 32.387,213.236 32.017,214.439 C31.706,215.659 31.415,216.802 31.144,217.867 C30.606,219.996 30.15,221.808 29.78,223.276 C29.038,226.214 28.642,227.78 28.642,227.78 L28.633,227.821 C28.633,227.821 28.318,229.405 27.729,232.377 C27.434,233.863 27.069,235.695 26.641,237.849 C26.429,238.926 26.202,240.084 25.959,241.32 C25.777,242.565 25.584,243.889 25.38,245.287 C24.972,248.084 24.52,251.18 24.026,254.551 C23.703,257.942 23.354,261.609 22.979,265.526 C22.593,269.444 22.563,273.637 22.313,278.043 C22.166,280.248 22.193,282.512 22.215,284.829 C22.227,287.146 22.238,289.517 22.251,291.938 C22.547,311.305 25.644,333.859 32.063,357.212 C35.488,368.826 39.65,380.645 44.771,392.291 C50.017,403.878 56.095,415.3 62.921,426.274 C69.906,437.147 77.617,447.537 85.835,457.245 C94.158,466.866 103.05,475.696 112.072,483.772 C130.414,499.587 149.46,512.059 166.828,520.633 C169.01,521.683 171.146,522.71 173.234,523.715 C175.318,524.728 177.353,525.724 179.406,526.536 C183.494,528.201 187.295,529.972 190.999,531.303 C194.699,532.646 198.161,533.902 201.363,535.064 C204.619,536.065 207.61,536.985 210.312,537.816 C211.662,538.231 212.941,538.624 214.145,538.994 C215.364,539.305 216.508,539.597 217.572,539.867 C219.701,540.404 221.513,540.86 222.981,541.23 C225.919,541.973 227.485,542.369 227.485,542.369 L227.526,542.378 C227.526,542.378 229.639,542.798 233.865,543.636 C235.982,544.033 238.61,544.635 241.797,545.164 C244.993,545.634 248.722,546.181 252.983,546.807 C257.258,547.321 262.089,547.71 267.444,548.236 C270.133,548.356 272.955,548.482 275.912,548.614 C277.391,548.682 278.902,548.75 280.448,548.82 C281.995,548.812 283.575,548.802 285.189,548.792 C298.097,548.9 313.197,547.953 330.167,545.001 C334.415,544.312 338.739,543.283 343.228,542.405 C347.686,541.388 352.227,540.127 356.923,538.946 C361.532,537.461 366.341,536.147 371.154,534.424 C375.949,532.647 380.936,530.995 385.858,528.807 C395.868,524.827 405.947,519.65 416.29,513.896 C426.557,507.982 436.848,501.063 447.116,493.22 C467.369,477.238 487.396,457.166 504.061,432.014 C520.8,406.999 534.464,377.169 542.079,343.506 C545.597,344.298 547.354,344.694 547.354,344.694 L552.63,345.883 L557.905,347.072" id="path-1"></path>
        <path d="M58.856,65.066 C77.803,45.374 99.337,30.708 120.972,20.6 C142.617,10.37 164.437,4.951 184.732,2.426 C194.914,1.311 204.732,0.842 214.121,1.042 C223.497,1.371 232.456,2.008 240.881,3.405 C245.116,3.947 249.181,4.859 253.161,5.627 C257.135,6.435 260.94,7.507 264.676,8.4 C268.351,9.518 271.948,10.531 275.392,11.67 C278.802,12.909 282.156,13.995 285.324,15.269 C298.058,20.23 308.701,25.79 317.423,31.156 C318.521,31.813 319.598,32.458 320.651,33.088 C321.673,33.769 322.672,34.434 323.648,35.085 C325.601,36.39 327.464,37.635 329.238,38.82 C332.662,41.367 335.777,43.619 338.466,45.722 C341.1,47.894 343.403,49.794 345.379,51.422 C347.322,53.088 348.86,54.568 350.132,55.706 C352.65,58.008 353.909,59.16 353.909,59.16 L353.933,59.183 C353.933,59.183 354.834,60.092 356.522,61.796 C357.366,62.649 358.406,63.701 359.63,64.938 C360.239,65.558 360.894,66.225 361.593,66.936 C362.258,67.68 362.965,68.469 363.712,69.304 C365.202,70.976 366.853,72.827 368.649,74.842 C370.346,76.944 372.181,79.216 374.141,81.645 C376.104,84.071 377.969,86.826 380.054,89.638 C381.111,91.035 382.087,92.543 383.087,94.086 C384.092,95.625 385.12,97.201 386.171,98.809 C394.437,111.764 402.268,128.047 408.215,146.313 C411.032,155.494 413.439,165.135 415.138,175.077 C416.736,185.032 417.705,195.243 417.979,205.482 C418.114,215.725 417.554,225.966 416.354,235.978 C415.055,245.979 413.034,255.708 410.586,264.995 C405.373,283.484 398.199,300.066 390.457,313.341 C389.472,314.99 388.507,316.605 387.564,318.184 C386.626,319.765 385.712,321.312 384.712,322.749 C382.74,325.643 380.987,328.47 379.122,330.972 C377.261,333.477 375.519,335.821 373.907,337.989 C372.192,340.074 370.617,341.989 369.194,343.72 C368.481,344.584 367.807,345.401 367.171,346.17 C366.502,346.909 365.874,347.602 365.29,348.246 C364.117,349.53 363.119,350.623 362.311,351.509 C360.691,353.279 359.827,354.224 359.827,354.224 L359.805,354.247 C359.805,354.247 358.896,355.148 357.191,356.837 C356.339,357.681 355.286,358.721 354.05,359.944 C353.43,360.554 352.763,361.208 352.051,361.907 C351.308,362.572 350.518,363.279 349.684,364.026 C348.012,365.517 346.16,367.167 344.146,368.964 C342.044,370.66 339.771,372.495 337.343,374.455 C334.917,376.419 332.161,378.283 329.35,380.369 C327.952,381.426 326.444,382.401 324.901,383.401 C323.361,384.407 321.787,385.436 320.178,386.485 C307.224,394.752 290.94,402.582 272.675,408.529 C263.493,411.347 253.853,413.754 243.91,415.452 C233.955,417.051 223.745,418.02 213.505,418.294 C203.263,418.429 193.021,417.868 183.01,416.669 C173.008,415.369 163.279,413.35 153.992,410.9 C135.503,405.688 118.921,398.514 105.646,390.771 C103.997,389.786 102.382,388.821 100.804,387.879 C99.223,386.94 97.676,386.026 96.238,385.026 C93.345,383.055 90.518,381.302 88.016,379.437 C85.511,377.575 83.166,375.833 80.999,374.222 C78.913,372.507 76.998,370.932 75.268,369.509 C74.403,368.796 73.586,368.121 72.817,367.485 C72.078,366.816 71.386,366.188 70.741,365.604 C69.457,364.432 68.364,363.434 67.479,362.625 C65.708,361.006 64.764,360.143 64.764,360.143 L64.74,360.119 C64.74,360.119 63.539,358.907 61.138,356.482 C59.95,355.258 58.41,353.78 56.668,351.905 C54.962,349.996 52.971,347.77 50.696,345.225 C48.487,342.623 46.112,339.601 43.432,336.281 C42.176,334.555 40.857,332.742 39.476,330.844 C38.786,329.895 38.081,328.923 37.36,327.929 C36.688,326.902 36.002,325.853 35.301,324.78 C29.591,316.28 23.611,305.867 18.145,293.343 C16.745,290.228 15.526,286.919 14.152,283.562 C12.876,280.166 11.72,276.611 10.456,272.984 C9.415,269.287 8.192,265.527 7.227,261.59 C6.3,257.644 5.226,253.619 4.515,249.408 C2.783,241.046 1.788,232.12 1.085,222.764 C0.511,213.391 0.586,203.562 1.295,193.344 C3.007,172.964 7.55,150.945 16.906,128.908 C26.144,106.887 39.937,84.783 58.856,65.066 C60.761,66.896 61.714,67.811 61.714,67.811 L64.57,70.557 L67.428,73.302 C67.428,73.302 68.381,74.217 70.285,76.047 C52.778,94.298 40.058,114.7 31.522,135.038 C22.874,155.385 18.688,175.736 17.097,194.574 C16.448,204.02 16.373,213.106 16.903,221.771 C17.562,230.42 18.467,238.674 20.076,246.4 C20.727,250.294 21.73,254.011 22.58,257.659 C23.47,261.299 24.609,264.77 25.562,268.188 C26.737,271.536 27.8,274.821 28.979,277.958 C30.255,281.057 31.372,284.116 32.666,286.992 C37.714,298.561 43.233,308.176 48.512,316.024 C49.158,317.015 49.791,317.985 50.41,318.935 C51.077,319.852 51.73,320.748 52.368,321.625 C53.643,323.38 54.86,325.055 56.019,326.649 C58.504,329.712 60.692,332.509 62.733,334.914 C64.837,337.267 66.678,339.326 68.255,341.091 C69.865,342.825 71.295,344.188 72.393,345.323 C74.612,347.568 75.722,348.691 75.722,348.691 L75.744,348.712 C75.744,348.712 76.618,349.51 78.259,351.006 C79.078,351.755 80.089,352.678 81.277,353.764 C81.872,354.305 82.513,354.886 83.195,355.507 C83.907,356.093 84.664,356.716 85.463,357.374 C87.062,358.69 88.832,360.147 90.76,361.734 C92.763,363.223 94.93,364.832 97.245,366.552 C99.555,368.279 102.173,369.889 104.842,371.715 C106.168,372.644 107.598,373.484 109.06,374.35 C110.517,375.221 112.008,376.112 113.531,377.022 C125.787,384.179 141.104,390.787 158.182,395.615 C166.764,397.87 175.753,399.74 184.998,400.944 C194.252,402.048 203.719,402.567 213.188,402.447 C222.655,402.189 232.094,401.292 241.296,399.82 C250.485,398.248 259.393,396.02 267.878,393.424 C284.748,387.917 299.79,380.702 311.751,373.062 C313.236,372.092 314.69,371.142 316.112,370.213 C317.537,369.29 318.933,368.393 320.221,367.412 C322.814,365.48 325.366,363.768 327.605,361.949 C329.85,360.139 331.95,358.444 333.893,356.877 C335.755,355.215 337.466,353.688 339.011,352.309 C339.783,351.619 340.515,350.966 341.202,350.352 C341.86,349.705 342.477,349.098 343.05,348.533 C344.193,347.401 345.167,346.438 345.955,345.658 C347.534,344.098 348.377,343.266 348.377,343.266 L348.397,343.243 C348.397,343.243 349.195,342.369 350.691,340.729 C351.44,339.909 352.363,338.898 353.449,337.71 C353.99,337.115 354.571,336.475 355.192,335.792 C355.778,335.08 356.401,334.323 357.06,333.523 C358.376,331.925 359.833,330.154 361.42,328.228 C362.908,326.224 364.518,324.058 366.237,321.742 C367.965,319.433 369.574,316.814 371.4,314.146 C372.328,312.819 373.17,311.39 374.035,309.928 C374.906,308.471 375.797,306.979 376.708,305.456 C383.864,293.2 390.473,277.883 395.301,260.806 C397.556,252.224 399.426,243.234 400.63,233.989 C401.733,224.735 402.253,215.269 402.133,205.799 C401.874,196.332 400.978,186.894 399.506,177.691 C397.933,168.502 395.705,159.595 393.109,151.109 C387.603,134.239 380.388,119.197 372.747,107.237 C371.777,105.751 370.827,104.297 369.898,102.875 C368.976,101.45 368.078,100.055 367.098,98.767 C365.166,96.173 363.453,93.621 361.635,91.382 C359.824,89.138 358.13,87.037 356.562,85.094 C354.9,83.232 353.373,81.521 351.994,79.977 C351.305,79.204 350.651,78.473 350.037,77.785 C349.391,77.127 348.783,76.511 348.219,75.938 C347.087,74.793 346.124,73.821 345.344,73.032 C343.783,71.453 342.951,70.61 342.951,70.61 L342.929,70.589 L339.431,67.397 C338.253,66.346 336.833,64.972 335.036,63.432 C333.21,61.926 331.079,60.169 328.644,58.162 C326.159,56.218 323.277,54.143 320.118,51.783 C318.478,50.688 316.756,49.539 314.951,48.335 C314.05,47.733 313.128,47.117 312.186,46.487 C311.212,45.906 310.217,45.313 309.201,44.706 C301.148,39.746 291.319,34.614 279.56,30.032 C276.634,28.854 273.532,27.86 270.386,26.708 C267.204,25.656 263.879,24.726 260.486,23.686 C257.032,22.87 253.52,21.87 249.847,21.126 C246.167,20.422 242.414,19.568 238.497,19.074 C230.712,17.775 222.429,17.2 213.762,16.888 C205.082,16.704 196.005,17.142 186.593,18.167 C167.834,20.51 147.666,25.504 127.681,34.959 C107.7,44.299 87.823,57.825 70.285,76.047 C68.381,74.217 67.428,73.302 67.428,73.302 L64.57,70.557 L61.714,67.811" id="path-3"></path>
        <path d="M380.050797,758 C366.726468,757.983127 353.118487,757.37189 339.407315,755.974668 C321.217496,753.935157 302.884803,750.674121 284.83895,746.180653 C266.856354,741.445062 249.21404,735.491217 232.283919,728.532886 C215.418147,721.403324 199.380176,713.144941 184.322696,704.353232 C154.510938,686.258299 128.986515,665.655968 109.523911,645.667672 C107.117942,643.142823 104.761053,640.671416 102.457606,638.255632 C100.146524,635.847482 97.8856115,633.497137 95.8559165,631.048633 C91.7529007,626.195252 87.6575194,621.756317 84.1848978,617.279209 C80.7079137,612.806463 77.4534216,608.619468 74.4432345,604.74876 C71.6282734,600.737358 69.0423482,597.05097 66.7061813,593.722314 C65.5413698,592.055804 64.4398158,590.477637 63.4026101,588.993266 C62.4341151,587.464178 61.5277871,586.028886 60.6847165,584.695024 C59.0073007,582.019666 57.5796432,579.743485 56.4224662,577.898109 C54.1113842,574.205177 52.8789525,572.237649 52.8789525,572.237649 L52.849505,572.185298 C52.849505,572.185298 51.336777,569.481583 48.3145928,564.074153 C46.8302216,561.355168 44.8539683,558.02324 42.7173899,553.897321 C40.6593381,549.729957 38.2577324,544.86785 35.514754,539.311001 C32.9135597,533.687623 30.227295,527.24735 27.1483971,520.138509 C25.7894504,516.509925 24.3639741,512.699203 22.8686964,508.708524 C22.1237842,506.711548 21.3625122,504.669856 20.5826993,502.582357 C19.9064978,500.457776 19.216118,498.288478 18.5104691,496.073373 C12.6482388,478.431059 7.24408058,457.312852 3.76164317,432.748199 C2.82804892,426.61985 2.30017554,420.240653 1.52690647,413.69895 C0.943410072,407.140886 0.646753957,400.361422 0.197407194,393.403091 C0.170141007,386.430581 -0.14287482,379.259574 0.0796172662,371.903157 C0.375182734,364.548921 0.45043741,356.987462 1.25097266,349.275494 C2.28163453,333.80684 4.87519424,317.709974 8.18858129,301.001255 C11.7342763,284.326345 16.638918,267.168279 22.8392489,249.639393 C35.7296115,214.820472 54.3676863,178.507364 81.4353755,144.500976 C108.284935,110.464049 143.145301,78.4949899 185.815793,53.1897871 C188.258843,57.3157065 189.480368,59.3792115 189.480368,59.3792115 L193.147125,65.568636 L196.811701,71.7580604 C196.811701,71.7580604 198.033226,73.8215655 200.476276,77.9485755 C160.989384,101.375683 128.831643,130.887514 104.027047,162.319974 C79.0174101,193.715353 61.815718,227.283301 49.8840345,259.462855 C44.1635885,275.670967 39.6210417,291.531163 36.3414647,306.947465 C33.2941957,322.395396 30.870777,337.272918 29.9339108,351.571306 C29.1802734,358.697597 29.1311942,365.685376 28.8476259,372.4812 C28.6360403,379.280296 28.9446935,385.903799 28.9523281,392.346253 C29.3809525,398.774529 29.6459799,405.038118 30.1836691,411.097755 C30.9122216,417.137761 31.3801094,423.03162 32.2471741,428.692081 C35.4624029,451.377548 40.4488432,470.878325 45.8726331,487.170417 C46.5204777,489.217563 47.1563252,491.222173 47.7790849,493.183157 C48.5010935,495.111422 49.2067424,496.99606 49.8982129,498.840345 C51.2767914,502.528915 52.5921122,506.049525 53.8441755,509.402176 C56.7038532,515.965692 59.1752604,521.920627 61.5768662,527.119744 C64.1137122,532.257784 66.3342705,536.752342 68.2363597,540.6056 C70.2126129,544.420685 72.0514446,547.500673 73.4202072,550.017888 C76.2122647,555.02396 77.6082935,557.525905 77.6082935,557.525905 L77.637741,557.573894 C77.637741,557.573894 78.7796489,559.394184 80.9216806,562.807911 C81.9926964,564.515865 83.3123799,566.620814 84.8643712,569.097675 C85.6420029,570.333378 86.4796201,571.660696 87.3728604,573.077447 C88.3337209,574.448391 89.3556576,575.905496 90.4343079,577.445491 C92.5916086,580.524388 94.9812173,583.932662 97.5824115,587.645226 C100.363563,591.221459 103.372659,595.088895 106.587888,599.221358 C109.788938,603.364728 113.587663,607.450294 117.368938,611.94158 C119.238308,614.207945 121.332351,616.375062 123.467839,618.597801 C125.594601,620.828176 127.770443,623.111991 129.992092,625.443796 C147.958328,643.913911 171.544671,662.910809 199.073704,679.647885 C212.991456,687.760121 227.807902,695.396835 243.395436,701.990889 C259.048409,708.414803 275.35686,713.919301 291.979419,718.306976 C308.665235,722.451436 325.611715,725.465986 342.425137,727.358259 C359.262553,729.070576 375.926555,729.497019 392.029965,729.074938 C424.214973,727.635283 454.030003,722.316196 478.663367,714.759099 C481.732449,713.78297 484.738273,712.826472 487.676478,711.892878 C490.617954,710.97019 493.495082,710.07804 496.222791,708.988483 C501.698932,706.868265 506.992935,705.112322 511.792875,703.018279 C516.598268,700.940596 521.096098,698.994881 525.255827,697.197494 C529.31958,695.193974 533.053957,693.352961 536.426239,691.690814 C538.11238,690.85865 539.709088,690.072294 541.210909,689.331744 C542.674558,688.519212 544.046593,687.75794 545.323741,687.047928 C547.874765,685.623542 550.044063,684.410742 551.803278,683.428069 C555.323888,681.465994 557.200892,680.418973 557.200892,680.418973 L557.248881,680.390616 C557.248881,680.390616 559.069171,679.247617 562.481807,677.105586 C564.189761,676.03566 566.295801,674.715977 568.770481,673.163986 C570.007275,672.385263 571.334593,671.547646 572.751344,670.654406 C574.122288,669.693545 575.579393,668.672699 577.119387,667.592958 C580.199376,665.435658 583.607649,663.046049 587.319122,660.445945 C590.895355,657.663704 594.762791,654.654607 598.895255,651.440469 C603.038624,648.238328 607.12419,644.439603 611.615476,640.658328 C613.881842,638.788958 616.048958,636.694915 618.271698,634.559427 C620.503163,632.432665 622.785888,630.256823 625.117692,628.035174 C643.587807,610.068938 662.585796,586.482596 679.321781,558.953563 C687.434017,545.03581 695.070731,530.219364 701.665876,514.632921 C708.088699,498.979948 713.593197,482.671496 717.981963,466.047847 C722.125332,449.363122 725.139882,432.416642 727.032155,415.60322 C728.744472,398.764714 729.170915,382.101801 728.749925,365.998391 C727.30918,333.812294 721.990092,303.997263 714.432996,279.36499 C713.456866,276.294817 712.500368,273.290083 711.566774,270.351879 C710.644086,267.410403 709.751937,264.533275 708.66238,261.804475 C706.542161,256.329424 704.786219,251.034331 702.692176,246.235482 C700.614492,241.428999 698.669868,236.931168 696.87139,232.772529 C694.867871,228.707686 693.026858,224.973309 691.364711,221.602118 C690.533637,219.914886 689.74619,218.319269 689.00564,216.817447 C688.193108,215.353799 687.431836,213.980673 686.721824,212.703525 C685.297439,210.152501 684.085729,207.983203 683.101965,206.223988 C681.139891,202.704469 680.092869,200.827465 680.092869,200.827465 L680.064512,200.779476 C680.064512,200.779476 678.541968,198.351695 675.494699,193.497223 C673.947071,191.086892 672.128961,187.993816 669.732809,184.426308 C667.270127,180.905698 664.39518,176.798319 661.11015,172.103082 C657.706239,167.497278 653.673024,162.467212 649.291894,156.80457 C646.955727,154.094311 644.500679,151.247721 641.927842,148.265891 C640.643059,146.774976 639.329919,145.248069 637.987332,143.689534 C636.566219,142.199709 635.114567,140.679347 633.632377,139.126265 C621.953724,126.538012 607.251796,112.7904 588.903833,99.0646014 C584.358014,95.5832547 579.416291,92.3374878 574.470204,88.7961554 C569.415053,85.4107856 564.050158,82.1682906 558.619824,78.7011223 C552.975724,75.5971396 547.314173,72.1419683 541.252354,69.0587079 C535.156725,66.0408863 529.005473,62.7231367 522.393968,59.9583453 C509.406538,53.9052518 495.195401,48.8773669 480.18482,44.1232345 C465.09135,39.5872317 449.001027,35.9455597 432.038187,33.1687712 C398.08524,28.1594273 360.381557,27.1047712 320.828135,33.9409496 C281.341243,40.5786302 240.003522,54.5869065 200.476276,77.9485755 C198.033226,73.8215655 196.811701,71.7580604 196.811701,71.7580604 L193.147125,65.568636 L189.480368,59.3792115 C189.480368,59.3792115 188.258843,57.3157065 185.815793,53.1897871 C228.519004,27.9402072 273.311896,12.7431252 316.066368,5.56339281 C358.897186,-1.82138129 399.699399,-0.705648921 436.425862,4.73122878 C454.777096,7.72287482 472.181649,11.6710187 488.50646,16.5789324 C504.750564,21.7060662 520.112334,27.1713007 534.17078,33.7053698 C541.317793,36.7101036 547.984921,40.2787022 554.574613,43.5560978 C561.132676,46.8978417 567.26975,50.6202216 573.370832,53.9957755 C579.255965,57.7356058 585.05821,61.2551252 590.527807,64.9197007 C595.891612,68.7435108 601.232512,72.2717554 606.156786,76.0366705 C626.021839,90.9000144 641.94202,105.791715 654.59244,119.413902 C656.195692,121.097862 657.766224,122.746921 659.302947,124.361079 C660.758961,126.04722 662.182256,127.696279 663.576104,129.310437 C666.357255,132.539845 669.011891,135.623105 671.542193,138.558037 C676.294144,144.675479 680.65019,150.127626 684.331125,155.110794 C687.884455,160.188849 690.9928,164.632147 693.657252,168.439597 C696.24754,172.297217 698.21834,175.633508 699.891393,178.240155 C703.178604,183.491623 704.82221,186.116812 704.82221,186.116812 L704.852748,186.168072 C704.852748,186.168072 705.987022,188.195586 708.113784,191.997583 C709.173894,193.898581 710.484852,196.243473 712.023755,199.00063 C712.788299,200.382481 713.610647,201.866852 714.487528,203.450472 C715.290245,205.073355 716.143131,206.79876 717.044006,208.621232 C718.840302,212.269447 720.828553,216.309206 722.993488,220.706696 C724.940294,225.206708 727.046334,230.073177 729.29634,235.273384 C731.55398,240.470319 733.476791,246.195128 735.759517,252.126069 C736.930872,255.083905 737.903729,258.195522 738.904944,261.380213 C739.915974,264.561632 740.949908,267.816124 742.006745,271.139327 C750.176786,297.815473 755.970305,330.10082 757.504846,364.941554 C757.608548,368.78672 757.673896,372.66124 757.673896,376.560605 L757.673896,378.267302 C757.648712,391.499084 757.035639,405.008364 755.648564,418.619951 C753.610144,436.81086 750.348017,455.142463 745.85455,473.188317 C741.118958,491.172003 735.165114,508.813226 728.207873,525.744437 C721.07722,542.61021 712.818837,558.648181 704.028219,573.70457 C685.932196,603.516328 665.329865,629.041842 645.341568,648.503355 C642.81781,650.910414 640.345312,653.267304 637.929528,655.56966 C635.521378,657.880742 633.171033,660.141655 630.722529,662.17244 C625.870239,666.274365 621.430213,670.369747 616.953105,673.842368 C612.479269,677.319353 608.293364,680.574935 604.422656,683.585122 C600.411255,686.400083 596.724866,688.986009 593.39621,691.321085 C591.729701,692.486987 590.152624,693.58745 588.667163,694.625747 C587.138075,695.593151 585.702783,696.499479 584.368921,697.34364 C581.693563,699.021056 579.417381,700.447623 577.572006,701.6048 C573.880164,703.915882 571.911545,705.148314 571.911545,705.148314 L571.859194,705.178852 C571.859194,705.178852 569.832771,706.312035 566.030774,708.438797 C564.128685,709.499997 561.784883,710.809865 559.026636,712.349859 C557.645876,713.114403 556.161505,713.936751 554.576794,714.812541 C552.953911,715.615258 551.228506,716.469235 549.406035,717.370109 C545.757819,719.166406 541.71806,721.154656 537.32057,723.319591 C532.820558,725.266397 527.954089,727.372437 522.754973,729.621353 C517.556947,731.880083 511.832138,733.801804 505.901197,736.08562 C502.944452,737.255885 499.831744,738.229833 496.647053,739.231047 C493.465635,740.242078 490.212233,741.276012 486.88794,742.332849 C460.212883,750.502889 427.926446,756.296409 393.085712,757.83095 C389.14918,757.936876 385.181768,758 381.188352,758 L380.050797,758" id="path-5"></path>
        <path d="M455.916,212.925 C490.192,210.534 522.645,215.015 551.348,223.83 C580.162,232.541 605.084,245.887 626.142,260.646 C636.578,268.19 646.132,276.033 654.719,284.136 C663.187,292.349 671.006,300.498 677.686,308.904 C681.18,312.982 684.201,317.26 687.266,321.333 C690.291,325.437 692.937,329.645 695.667,333.628 C698.152,337.769 700.653,341.748 702.904,345.715 C705.04,349.746 707.253,353.587 709.135,357.447 C716.827,372.812 722.066,386.972 725.676,399.332 C726.146,400.872 726.607,402.38 727.058,403.855 C727.437,405.352 727.807,406.815 728.169,408.246 C728.89,411.109 729.578,413.841 730.233,416.444 C731.279,421.707 732.286,426.434 733.02,430.662 C733.646,434.908 734.192,438.624 734.661,441.808 C735.069,445 735.256,447.678 735.481,449.811 C735.89,454.082 736.093,456.218 736.093,456.218 L736.096,456.259 C736.096,456.259 736.169,457.866 736.307,460.88 C736.375,462.387 736.458,464.245 736.557,466.43 C736.602,467.523 736.649,468.697 736.701,469.95 C736.695,471.204 736.688,472.537 736.682,473.945 C736.662,476.762 736.641,479.88 736.617,483.274 C736.428,486.665 736.222,490.332 736.003,494.25 C735.788,498.168 735.204,502.311 734.777,506.691 C734.586,508.886 734.224,511.115 733.855,513.397 C733.495,515.681 733.126,518.018 732.749,520.403 C729.535,539.456 723.108,561.247 713.253,583.299 C708.139,594.238 702.254,605.26 695.455,615.965 C688.551,626.598 680.845,636.938 672.465,646.72 C663.955,656.387 654.796,665.466 645.235,673.792 C635.59,682.025 625.501,689.396 615.387,695.993 C594.934,708.842 574.259,718.259 555.845,724.111 C553.535,724.819 551.273,725.512 549.063,726.189 C546.854,726.873 544.698,727.544 542.552,728.042 C538.274,729.077 534.255,730.237 530.405,730.998 C526.557,731.765 522.955,732.481 519.624,733.145 C516.267,733.644 513.182,734.103 510.396,734.517 C509.002,734.721 507.684,734.914 506.442,735.096 C505.195,735.221 504.025,735.337 502.937,735.445 C500.761,735.654 498.908,735.832 497.407,735.977 C494.404,736.263 492.803,736.415 492.803,736.415 L492.761,736.418 C492.761,736.418 491.153,736.491 488.14,736.629 C486.633,736.696 484.774,736.78 482.59,736.879 C481.497,736.924 480.323,736.972 479.07,737.023 C477.816,737.023 476.483,737.011 475.075,737.004 C472.259,736.984 469.141,736.963 465.745,736.939 C462.354,736.749 458.688,736.544 454.77,736.324 C450.852,736.11 446.71,735.525 442.328,735.1 C440.134,734.907 437.905,734.545 435.622,734.178 C433.339,733.817 431.003,733.448 428.617,733.071 C409.563,729.857 387.773,723.431 365.722,713.575 C354.782,708.46 343.761,702.576 333.056,695.776 C322.423,688.872 312.082,681.167 302.301,672.787 C292.633,664.276 283.554,655.118 275.228,645.558 C266.995,635.911 259.624,625.823 253.026,615.709 C240.178,595.256 230.761,574.581 224.908,556.166 C224.201,553.856 223.508,551.596 222.831,549.385 C222.147,547.177 221.476,545.02 220.979,542.874 C219.942,538.596 218.783,534.577 218.021,530.728 C217.256,526.879 216.538,523.277 215.875,519.946 C215.376,516.588 214.918,513.504 214.504,510.718 C214.3,509.324 214.106,508.006 213.924,506.765 C213.8,505.518 213.683,504.348 213.574,503.26 C213.365,501.082 213.188,499.23 213.044,497.729 C212.758,494.726 212.604,493.124 212.604,493.124 L212.603,493.083 C212.603,493.083 212.504,490.939 212.31,486.653 C212.234,484.51 212.044,481.833 212,478.615 C212.019,475.396 212.039,471.641 212.063,467.348 C212.196,463.059 212.531,458.238 212.829,452.881 C213.113,450.212 213.412,447.41 213.725,444.475 C213.883,443.007 214.044,441.506 214.209,439.972 C214.449,438.447 214.693,436.889 214.943,435.298 C216.785,422.555 219.989,407.801 225.451,391.509 C226.773,387.424 228.427,383.31 229.977,379.02 C231.649,374.776 233.567,370.486 235.447,366.038 C237.594,361.711 239.624,357.174 242.043,352.687 C244.507,348.224 246.899,343.565 249.787,339.038 C255.223,329.778 261.821,320.614 269.056,311.295 C276.423,302.068 284.782,292.964 294.059,284.032 C312.841,266.467 335.646,249.76 362.955,237.097 C390.14,224.347 421.643,215.361 455.916,212.925 C456.149,216.238 456.267,217.895 456.267,217.895 L456.616,222.865 L456.966,227.834 C456.966,227.834 457.083,229.491 457.316,232.805 C425.597,235.065 396.528,243.367 371.419,255.139 C346.194,266.824 325.13,282.276 307.76,298.503 C299.19,306.767 291.458,315.179 284.646,323.708 C277.968,332.33 271.852,340.792 266.837,349.355 C264.16,353.535 261.963,357.848 259.679,361.968 C257.439,366.112 255.575,370.31 253.582,374.302 C251.854,378.416 250.075,382.376 248.529,386.296 C247.106,390.262 245.568,394.058 244.351,397.832 C239.305,412.877 236.344,426.5 234.649,438.271 C234.417,439.741 234.188,441.179 233.966,442.587 C233.814,444.004 233.667,445.391 233.523,446.747 C233.232,449.458 232.955,452.047 232.691,454.512 C232.427,459.463 232.109,463.917 231.984,467.882 C231.963,471.851 231.943,475.323 231.927,478.299 C231.966,481.274 232.149,483.752 232.217,485.735 C232.394,489.701 232.481,491.685 232.481,491.685 L232.484,491.723 C232.484,491.723 232.628,493.204 232.896,495.982 C233.028,497.372 233.193,499.086 233.386,501.1 C233.485,502.106 233.592,503.188 233.705,504.344 C233.875,505.49 234.056,506.71 234.246,507.998 C234.627,510.573 235.049,513.426 235.509,516.53 C236.123,519.608 236.786,522.937 237.495,526.493 C238.193,530.052 239.278,533.76 240.228,537.714 C240.682,539.698 241.306,541.688 241.939,543.728 C242.564,545.769 243.203,547.857 243.856,549.991 C249.253,567.001 257.967,586.081 269.824,604.984 C275.927,614.324 282.734,623.649 290.341,632.567 C298.042,641.4 306.434,649.867 315.367,657.74 C324.415,665.482 333.975,672.604 343.799,678.992 C353.695,685.274 363.883,690.707 373.985,695.44 C394.364,704.531 414.478,710.485 432.076,713.445 C434.279,713.792 436.437,714.133 438.546,714.465 C440.653,714.807 442.712,715.146 444.74,715.317 C448.788,715.703 452.612,716.258 456.233,716.449 C459.854,716.653 463.242,716.844 466.376,717.021 C469.515,717.04 472.397,717.059 475.002,717.075 C476.304,717.083 477.536,717.091 478.695,717.099 C479.854,717.049 480.94,717.003 481.952,716.96 C483.974,716.869 485.692,716.791 487.087,716.729 C489.875,716.604 491.362,716.538 491.362,716.538 L491.4,716.535 C491.4,716.535 492.883,716.393 495.661,716.124 C497.05,715.991 498.764,715.827 500.778,715.634 C501.785,715.535 502.867,715.429 504.021,715.314 C505.168,715.145 506.388,714.965 507.676,714.774 C510.252,714.393 513.104,713.971 516.209,713.511 C519.286,712.897 522.614,712.233 526.171,711.524 C529.729,710.827 533.437,709.741 537.393,708.793 C539.376,708.338 541.366,707.714 543.405,707.08 C545.447,706.456 547.536,705.816 549.669,705.164 C566.679,699.767 585.76,691.053 604.662,679.196 C614.002,673.093 623.327,666.286 632.245,658.679 C641.078,650.978 649.545,642.586 657.418,633.652 C665.16,624.605 672.282,615.046 678.67,605.221 C684.952,595.324 690.385,585.138 695.118,575.034 C704.209,554.656 710.163,534.543 713.123,516.944 C713.47,514.74 713.811,512.583 714.143,510.474 C714.484,508.366 714.823,506.308 714.995,504.28 C715.381,500.231 715.936,496.408 716.128,492.786 C716.331,489.166 716.522,485.777 716.698,482.645 C716.719,479.506 716.736,476.622 716.753,474.019 C716.761,472.716 716.769,471.484 716.776,470.324 C716.727,469.166 716.681,468.079 716.638,467.068 C716.547,465.047 716.469,463.327 716.406,461.933 C716.282,459.145 716.216,457.657 716.216,457.657 L716.214,457.619 C716.214,457.619 716.023,455.644 715.642,451.692 C715.431,449.719 715.265,447.24 714.888,444.288 C714.454,441.343 713.948,437.908 713.37,433.982 C712.69,430.074 711.753,425.708 710.797,420.843 C710.189,418.439 709.552,415.915 708.884,413.271 C708.552,411.949 708.211,410.596 707.863,409.214 C707.445,407.851 707.018,406.459 706.581,405.037 C703.254,393.62 698.413,380.546 691.309,366.355 C689.573,362.79 687.519,359.247 685.555,355.52 C683.474,351.855 681.157,348.184 678.87,344.353 C676.337,340.679 673.903,336.784 671.105,332.994 C668.267,329.235 665.486,325.272 662.25,321.509 C656.084,313.733 648.844,306.212 641.022,298.612 C633.082,291.122 624.247,283.875 614.604,276.895 C595.132,263.262 572.109,250.915 545.496,242.88 C518.984,234.743 489.039,230.597 457.316,232.805 C457.083,229.491 456.966,227.834 456.966,227.834 L456.616,222.865 L456.267,217.895" id="path-7"></path>
    </defs>
    <g id="Wireframes" stroke="none" stroke-width="1" fill="none" fill-rule="evenodd">
        <g id="Group-28">
            <g id="Group-3" transform="translate(189.000000, 189.000000)">
                <mask id="mask-2" fill="white">
                    <use xlink:href="#path-1"></use>
                </mask>
                <g id="Clip-2"></g>
                <path d="M563.18,348.261 C559.663,347.468 557.905,347.072 557.905,347.072 L552.63,345.883 L547.354,344.694 C547.354,344.694 545.597,344.298 542.079,343.506 C534.464,377.169 520.8,406.999 504.061,432.014 C487.396,457.166 467.369,477.238 447.116,493.22 C436.848,501.063 426.557,507.982 416.29,513.896 C405.947,519.65 395.868,524.827 385.858,528.807 C380.936,530.995 375.949,532.647 371.154,534.424 C366.341,536.147 361.532,537.461 356.923,538.946 C352.227,540.127 347.686,541.388 343.228,542.405 C338.739,543.283 334.415,544.312 330.167,545.001 C313.197,547.953 298.097,548.9 285.189,548.792 C283.575,548.802 281.995,548.812 280.448,548.82 C278.902,548.75 277.391,548.682 275.912,548.614 C272.955,548.482 270.133,548.356 267.444,548.236 C262.089,547.71 257.258,547.321 252.983,546.807 C248.722,546.181 244.993,545.634 241.797,545.164 C238.61,544.635 235.982,544.033 233.865,543.636 C229.639,542.798 227.526,542.378 227.526,542.378 L227.485,542.369 C227.485,542.369 225.919,541.973 222.981,541.23 C221.513,540.86 219.701,540.404 217.572,539.867 C216.508,539.597 215.364,539.305 214.145,538.994 C212.941,538.624 211.662,538.231 210.312,537.816 C207.61,536.985 204.619,536.065 201.363,535.064 C198.161,533.902 194.699,532.646 190.999,531.303 C187.295,529.972 183.494,528.201 179.406,526.536 C177.353,525.724 175.318,524.728 173.234,523.715 C171.146,522.71 169.01,521.683 166.828,520.633 C149.46,512.059 130.414,499.587 112.072,483.772 C103.05,475.696 94.158,466.866 85.835,457.245 C77.617,447.537 69.906,437.147 62.921,426.274 C56.095,415.3 50.017,403.878 44.771,392.291 C39.65,380.645 35.488,368.826 32.063,357.212 C25.644,333.859 22.547,311.305 22.251,291.938 C22.238,289.517 22.227,287.146 22.215,284.829 C22.193,282.512 22.166,280.248 22.313,278.043 C22.563,273.637 22.593,269.444 22.979,265.526 C23.354,261.609 23.703,257.942 24.026,254.551 C24.52,251.18 24.972,248.084 25.38,245.287 C25.584,243.889 25.777,242.565 25.959,241.32 C26.202,240.084 26.429,238.926 26.641,237.849 C27.069,235.695 27.434,233.863 27.729,232.377 C28.318,229.405 28.633,227.821 28.633,227.821 L28.642,227.78 C28.642,227.78 29.038,226.214 29.78,223.276 C30.15,221.808 30.606,219.996 31.144,217.867 C31.415,216.802 31.706,215.659 32.017,214.439 C32.387,213.236 32.78,211.957 33.195,210.606 C34.025,207.905 34.945,204.914 35.946,201.658 C37.108,198.456 38.365,194.994 39.708,191.294 C41.039,187.59 42.811,183.789 44.476,179.701 C45.287,177.647 46.283,175.613 47.297,173.529 C48.301,171.441 49.328,169.305 50.378,167.123 C58.952,149.755 71.424,130.709 87.238,112.367 C95.315,103.345 104.145,94.454 113.766,86.129 C123.474,77.913 133.863,70.201 144.736,63.215 C155.711,56.389 167.133,50.312 178.72,45.066 C190.366,39.945 202.185,35.783 213.8,32.357 C237.152,25.938 259.706,22.841 279.073,22.545 C281.494,22.533 283.865,22.521 286.183,22.51 C288.499,22.488 290.764,22.461 292.968,22.608 C297.374,22.857 301.567,22.888 305.484,23.274 C309.402,23.648 313.069,23.998 316.46,24.321 C319.831,24.814 322.927,25.266 325.724,25.674 C327.122,25.879 328.445,26.072 329.691,26.254 C330.927,26.497 332.085,26.724 333.162,26.935 C335.316,27.364 337.148,27.729 338.634,28.024 C341.605,28.613 343.19,28.928 343.19,28.928 L343.231,28.937 C343.231,28.937 345.319,29.464 349.497,30.52 C351.58,31.069 354.212,31.653 357.317,32.541 C360.406,33.488 364.009,34.593 368.127,35.856 C372.209,37.224 376.74,38.945 381.804,40.767 C384.283,41.812 386.887,42.909 389.614,44.058 C390.979,44.631 392.374,45.217 393.801,45.817 C395.194,46.489 396.618,47.175 398.072,47.876 C409.778,53.314 423.013,60.647 437.076,70.592 C440.618,73.038 444.083,75.822 447.761,78.539 C451.352,81.371 454.912,84.457 458.648,87.538 C462.176,90.857 465.956,94.106 469.564,97.729 C473.134,101.389 476.931,105.021 480.438,109.109 C487.773,116.997 494.658,125.997 501.533,135.631 C508.271,145.376 514.599,156.042 520.511,167.53 C531.951,190.654 541.433,217.375 545.698,247.246 C550.09,277.022 549.639,309.83 542.079,343.506 C545.597,344.298 547.354,344.694 547.354,344.694 L552.63,345.883 L557.905,347.072 C557.905,347.072 559.663,347.468 563.18,348.261 C571.354,311.875 571.856,276.323 567.096,244.084 C562.464,211.742 552.223,182.819 539.833,157.81 C533.446,145.377 526.595,133.844 519.306,123.304 C511.88,112.874 504.415,103.152 496.488,94.609 C492.686,90.194 488.59,86.251 484.721,82.296 C480.813,78.38 476.73,74.853 472.904,71.271 C468.867,67.927 465.008,64.592 461.12,61.528 C457.145,58.577 453.385,55.574 449.552,52.923 C434.324,42.156 419.989,34.217 407.318,28.322 C405.743,27.565 404.2,26.824 402.69,26.099 C401.147,25.448 399.638,24.811 398.162,24.188 C395.208,22.946 392.389,21.761 389.704,20.632 C384.229,18.648 379.321,16.794 374.905,15.315 C370.451,13.95 366.554,12.755 363.214,11.73 C359.855,10.771 357.014,10.133 354.762,9.541 C350.246,8.405 347.987,7.837 347.987,7.837 L347.943,7.827 C347.943,7.827 346.231,7.485 343.021,6.844 C341.415,6.525 339.435,6.131 337.106,5.668 C335.941,5.441 334.689,5.197 333.354,4.937 C332.007,4.738 330.576,4.527 329.063,4.304 C326.038,3.864 322.689,3.377 319.043,2.847 C315.374,2.496 311.406,2.116 307.166,1.71 C302.928,1.299 298.388,1.249 293.617,0.989 C291.231,0.835 288.78,0.864597265 286.271,0.88 C283.762,0.894 281.195,0.908 278.573,0.921 C257.604,1.252 233.173,4.582 207.9,11.548 C195.326,15.246 182.537,19.755 169.939,25.299 C157.4,30.967 145.045,37.542 133.179,44.933 C121.413,52.482 110.174,60.823 99.676,69.719 C89.264,78.721 79.705,88.339 70.971,98.112 C53.838,117.954 40.352,138.596 31.059,157.396 C29.922,159.759 28.808,162.072 27.72,164.332 C26.625,166.59 25.552,168.794 24.666,171.015 C22.855,175.436 20.953,179.558 19.507,183.564 C18.055,187.568 16.696,191.315 15.439,194.78 C14.354,198.301 13.358,201.536 12.458,204.457 C12.011,205.919 11.588,207.302 11.189,208.604 C10.852,209.922 10.535,211.158 10.24,212.308 C9.66,214.609 9.166,216.567 8.766,218.154 C7.968,221.33 7.542,223.023 7.542,223.023 L7.532,223.067 C7.532,223.067 7.19,224.78 6.55,227.991 C6.23,229.596 5.836,231.577 5.373,233.905 C5.146,235.07 4.902,236.322 4.642,237.658 C4.443,239.004 4.232,240.436 4.01,241.947 C3.569,244.973 3.082,248.322 2.552,251.968 C2.201,255.637 1.821,259.605 1.416,263.845 C1.004,268.084 0.954,272.624 0.693,277.394 C0.541,279.78 0.564,282.231 0.586,284.74 C0.599,287.249 0.612,289.816 0.627,292.438 C0.957,313.407 4.287,337.838 11.253,363.111 C14.951,375.686 19.461,388.474 25.005,401.072 C30.673,413.61 37.248,425.966 44.638,437.832 C52.188,449.598 60.528,460.837 69.424,471.336 C78.427,481.747 88.045,491.307 97.817,500.04 C117.659,517.173 138.301,530.66 157.102,539.952 C159.464,541.09 161.776,542.203 164.037,543.291 C166.295,544.387 168.499,545.459 170.72,546.345 C175.141,548.156 179.264,550.058 183.27,551.504 C187.273,552.956 191.021,554.315 194.485,555.571 C198.007,556.656 201.241,557.653 204.162,558.553 C205.624,559 207.008,559.424 208.31,559.821 C209.627,560.159 210.863,560.476 212.013,560.771 C214.314,561.351 216.272,561.845 217.859,562.245 C221.035,563.043 222.729,563.469 222.729,563.469 L222.772,563.479 C222.772,563.479 225.056,563.935 229.623,564.846 C231.911,565.276 234.752,565.919 238.197,566.492 C241.654,567 245.687,567.592 250.296,568.269 C254.92,568.827 260.147,569.257 265.944,569.813 C268.854,569.945 271.909,570.084 275.11,570.229 C276.711,570.3 278.348,570.372 280.021,570.445 C281.696,570.437 283.407,570.43 285.155,570.422 C299.13,570.531 315.484,569.509 333.858,566.313 C338.458,565.563 343.142,564.463 347.999,563.502 C352.825,562.401 357.742,561.045 362.823,559.756 C367.816,558.161 373.017,556.726 378.227,554.864 C383.418,552.951 388.809,551.146 394.139,548.789 C404.963,544.472 415.876,538.892 427.058,532.654 C438.163,526.26 449.3,518.78 460.401,510.288 C482.32,493.011 503.978,471.276 522.033,444.047 C540.162,416.966 554.957,384.635 563.18,348.261" id="Fill-1" fill="#6674A4" opacity="0.2" mask="url(#mask-2)"></path>
            </g>
            <g id="Group-6" transform="translate(265.000000, 265.000000)">
                <mask id="mask-4" fill="white">
                    <use xlink:href="#path-3"></use>
                </mask>
                <g id="Clip-5"></g>
                <path d="M58.856,65.066 C60.761,66.896 61.714,67.811 61.714,67.811 L64.57,70.557 L67.428,73.302 C67.428,73.302 68.381,74.217 70.285,76.047 C87.823,57.825 107.7,44.299 127.681,34.959 C147.666,25.504 167.834,20.51 186.593,18.167 C196.005,17.142 205.082,16.704 213.762,16.888 C222.429,17.2 230.712,17.775 238.497,19.074 C242.414,19.568 246.167,20.422 249.847,21.126 C253.52,21.87 257.032,22.87 260.486,23.686 C263.879,24.726 267.204,25.656 270.386,26.708 C273.532,27.86 276.634,28.854 279.56,30.032 C291.319,34.614 301.148,39.746 309.201,44.706 C310.217,45.313 311.212,45.906 312.186,46.487 C313.128,47.117 314.05,47.733 314.951,48.335 C316.756,49.539 318.478,50.688 320.118,51.783 C323.277,54.143 326.159,56.218 328.644,58.162 C331.079,60.169 333.21,61.926 335.036,63.432 C336.833,64.972 338.253,66.346 339.431,67.397 L342.929,70.589 L342.951,70.61 C342.951,70.61 343.783,71.453 345.344,73.032 C346.124,73.821 347.087,74.793 348.219,75.938 C348.783,76.511 349.391,77.127 350.037,77.785 C350.651,78.473 351.305,79.204 351.994,79.977 C353.373,81.521 354.9,83.232 356.562,85.094 C358.13,87.037 359.824,89.138 361.635,91.382 C363.453,93.621 365.166,96.173 367.098,98.767 C368.078,100.055 368.976,101.45 369.898,102.875 C370.827,104.297 371.777,105.751 372.747,107.237 C380.388,119.197 387.603,134.239 393.109,151.109 C395.705,159.595 397.933,168.502 399.506,177.691 C400.978,186.894 401.874,196.332 402.133,205.799 C402.253,215.269 401.733,224.735 400.63,233.989 C399.426,243.234 397.556,252.224 395.301,260.806 C390.473,277.883 383.864,293.2 376.708,305.456 C375.797,306.979 374.906,308.471 374.035,309.928 C373.17,311.39 372.328,312.819 371.4,314.146 C369.574,316.814 367.965,319.433 366.237,321.742 C364.518,324.058 362.908,326.224 361.42,328.228 C359.833,330.154 358.376,331.925 357.06,333.523 C356.401,334.323 355.778,335.08 355.192,335.792 C354.571,336.475 353.99,337.115 353.449,337.71 C352.363,338.898 351.44,339.909 350.691,340.729 C349.195,342.369 348.397,343.243 348.397,343.243 L348.377,343.266 C348.377,343.266 347.534,344.098 345.955,345.658 C345.167,346.438 344.193,347.401 343.05,348.533 C342.477,349.098 341.86,349.705 341.202,350.352 C340.515,350.966 339.783,351.619 339.011,352.309 C337.466,353.688 335.755,355.215 333.893,356.877 C331.95,358.444 329.85,360.139 327.605,361.949 C325.366,363.768 322.814,365.48 320.221,367.412 C318.933,368.393 317.537,369.29 316.112,370.213 C314.69,371.142 313.236,372.092 311.751,373.062 C299.79,380.702 284.748,387.917 267.878,393.424 C259.393,396.02 250.485,398.248 241.296,399.82 C232.094,401.292 222.655,402.189 213.188,402.447 C203.719,402.567 194.252,402.048 184.998,400.944 C175.753,399.74 166.764,397.87 158.182,395.615 C141.104,390.787 125.787,384.179 113.531,377.022 C112.008,376.112 110.517,375.221 109.06,374.35 C107.598,373.484 106.168,372.644 104.842,371.715 C102.173,369.889 99.555,368.279 97.245,366.552 C94.93,364.832 92.763,363.223 90.76,361.734 C88.832,360.147 87.062,358.69 85.463,357.374 C84.664,356.716 83.907,356.093 83.195,355.507 C82.513,354.886 81.872,354.305 81.277,353.764 C80.089,352.678 79.078,351.755 78.259,351.006 C76.618,349.51 75.744,348.712 75.744,348.712 L75.722,348.691 C75.722,348.691 74.612,347.568 72.393,345.323 C71.295,344.188 69.865,342.825 68.255,341.091 C66.678,339.326 64.837,337.267 62.733,334.914 C60.692,332.509 58.504,329.712 56.019,326.649 C54.86,325.055 53.643,323.38 52.368,321.625 C51.73,320.748 51.077,319.852 50.41,318.935 C49.791,317.985 49.158,317.015 48.512,316.024 C43.233,308.176 37.714,298.561 32.666,286.992 C31.372,284.116 30.255,281.057 28.979,277.958 C27.8,274.821 26.737,271.536 25.562,268.188 C24.609,264.77 23.47,261.299 22.58,257.659 C21.73,254.011 20.727,250.294 20.076,246.4 C18.467,238.674 17.562,230.42 16.903,221.771 C16.373,213.106 16.448,204.02 17.097,194.574 C18.688,175.736 22.874,155.385 31.522,135.038 C40.058,114.7 52.778,94.298 70.285,76.047 C68.381,74.217 67.428,73.302 67.428,73.302 L64.57,70.557 L61.714,67.811 C61.714,67.811 60.761,66.896 58.856,65.066 C39.937,84.783 26.144,106.887 16.906,128.908 C7.55,150.945 3.007,172.964 1.295,193.344 C0.586,203.562 0.511,213.391 1.085,222.764 C1.788,232.12 2.783,241.046 4.515,249.408 C5.226,253.619 6.3,257.644 7.227,261.59 C8.192,265.527 9.415,269.287 10.456,272.984 C11.72,276.611 12.876,280.166 14.152,283.562 C15.526,286.919 16.745,290.228 18.145,293.343 C23.611,305.867 29.591,316.28 35.301,324.78 C36.002,325.853 36.688,326.902 37.36,327.929 C38.081,328.923 38.786,329.895 39.476,330.844 C40.857,332.742 42.176,334.555 43.432,336.281 C46.112,339.601 48.487,342.623 50.696,345.225 C52.971,347.77 54.962,349.996 56.668,351.905 C58.41,353.78 59.95,355.258 61.138,356.482 C63.539,358.907 64.74,360.119 64.74,360.119 L64.764,360.143 C64.764,360.143 65.708,361.006 67.479,362.625 C68.364,363.434 69.457,364.432 70.741,365.604 C71.386,366.188 72.078,366.816 72.817,367.485 C73.586,368.121 74.403,368.796 75.268,369.509 C76.998,370.932 78.913,372.507 80.999,374.222 C83.166,375.833 85.511,377.575 88.016,379.437 C90.518,381.302 93.345,383.055 96.238,385.026 C97.676,386.026 99.223,386.94 100.804,387.879 C102.382,388.821 103.997,389.786 105.646,390.771 C118.921,398.514 135.503,405.688 153.992,410.9 C163.279,413.35 173.008,415.369 183.01,416.669 C193.021,417.868 203.263,418.429 213.505,418.294 C223.745,418.02 233.955,417.051 243.91,415.452 C253.853,413.754 263.493,411.347 272.675,408.529 C290.94,402.582 307.224,394.752 320.178,386.485 C321.787,385.436 323.361,384.407 324.901,383.401 C326.444,382.401 327.952,381.426 329.35,380.369 C332.161,378.283 334.917,376.419 337.343,374.455 C339.771,372.495 342.044,370.66 344.146,368.964 C346.16,367.167 348.012,365.517 349.684,364.026 C350.518,363.279 351.308,362.572 352.051,361.907 C352.763,361.208 353.43,360.554 354.05,359.944 C355.286,358.721 356.339,357.681 357.191,356.837 C358.896,355.148 359.805,354.247 359.805,354.247 L359.827,354.224 C359.827,354.224 360.691,353.279 362.311,351.509 C363.119,350.623 364.117,349.53 365.29,348.246 C365.874,347.602 366.502,346.909 367.171,346.17 C367.807,345.401 368.481,344.584 369.194,343.72 C370.617,341.989 372.192,340.074 373.907,337.989 C375.519,335.821 377.261,333.477 379.122,330.972 C380.987,328.47 382.74,325.643 384.712,322.749 C385.712,321.312 386.626,319.765 387.564,318.184 C388.507,316.605 389.472,314.99 390.457,313.341 C398.199,300.066 405.373,283.484 410.586,264.995 C413.034,255.708 415.055,245.979 416.354,235.978 C417.554,225.966 418.114,215.725 417.979,205.482 C417.705,195.243 416.736,185.032 415.138,175.077 C413.439,165.135 411.032,155.494 408.215,146.313 C402.268,128.047 394.437,111.764 386.171,98.809 C385.12,97.201 384.092,95.625 383.087,94.086 C382.087,92.543 381.111,91.035 380.054,89.638 C377.969,86.826 376.104,84.071 374.141,81.645 C372.181,79.216 370.346,76.944 368.649,74.842 C366.853,72.827 365.202,70.976 363.712,69.304 C362.965,68.469 362.258,67.68 361.593,66.936 C360.894,66.225 360.239,65.558 359.63,64.938 C358.406,63.701 357.366,62.649 356.522,61.796 C354.834,60.092 353.933,59.183 353.933,59.183 L353.909,59.16 C353.909,59.16 352.65,58.008 350.132,55.706 C348.86,54.568 347.322,53.088 345.379,51.422 C343.403,49.794 341.1,47.894 338.466,45.722 C335.777,43.619 332.662,41.367 329.238,38.82 C327.464,37.635 325.601,36.39 323.648,35.085 C322.672,34.434 321.673,33.769 320.651,33.088 C319.598,32.458 318.521,31.813 317.423,31.156 C308.701,25.79 298.058,20.23 285.324,15.269 C282.156,13.995 278.802,12.909 275.392,11.67 C271.948,10.531 268.351,9.518 264.676,8.4 C260.94,7.507 257.135,6.435 253.161,5.627 C249.181,4.859 245.116,3.947 240.881,3.405 C232.456,2.008 223.497,1.371 214.121,1.042 C204.732,0.842 194.914,1.311 184.732,2.426 C164.437,4.951 142.617,10.37 120.972,20.6 C99.337,30.708 77.803,45.374 58.856,65.066" id="Fill-4" fill="#6674A4" opacity="0.1" mask="url(#mask-4)"></path>
            </g>
            <g id="Group-9" transform="translate(95.500000, 95.500000)">
                <mask id="mask-6" fill="white">
                    <use xlink:href="#path-5"></use>
                </mask>
                <g id="Clip-8"></g>
                <path d="M185.815793,53.1897871 C188.258843,57.3157065 189.480368,59.3792115 189.480368,59.3792115 L193.147125,65.568636 L196.811701,71.7580604 C196.811701,71.7580604 198.033226,73.8215655 200.476276,77.9485755 C240.003522,54.5869065 281.341243,40.5786302 320.828135,33.9409496 C360.381557,27.1047712 398.08524,28.1594273 432.038187,33.1687712 C449.001027,35.9455597 465.09135,39.5872317 480.18482,44.1232345 C495.195401,48.8773669 509.406538,53.9052518 522.393968,59.9583453 C529.005473,62.7231367 535.156725,66.0408863 541.252354,69.0587079 C547.314173,72.1419683 552.975724,75.5971396 558.619824,78.7011223 C564.050158,82.1682906 569.415053,85.4107856 574.470204,88.7961554 C579.416291,92.3374878 584.358014,95.5832547 588.903833,99.0646014 C607.251796,112.7904 621.953724,126.538012 633.632377,139.126265 C635.114567,140.679347 636.566219,142.199709 637.987332,143.689534 C639.329919,145.248069 640.643059,146.774976 641.927842,148.265891 C644.500679,151.247721 646.955727,154.094311 649.291894,156.80457 C653.673024,162.467212 657.706239,167.497278 661.11015,172.103082 C664.39518,176.798319 667.270127,180.905698 669.732809,184.426308 C672.128961,187.993816 673.947071,191.086892 675.494699,193.497223 C678.541968,198.351695 680.064512,200.779476 680.064512,200.779476 L680.092869,200.827465 C680.092869,200.827465 681.139891,202.704469 683.101965,206.223988 C684.085729,207.983203 685.297439,210.152501 686.721824,212.703525 C687.431836,213.980673 688.193108,215.353799 689.00564,216.817447 C689.74619,218.319269 690.533637,219.914886 691.364711,221.602118 C693.026858,224.973309 694.867871,228.707686 696.87139,232.772529 C698.669868,236.931168 700.614492,241.428999 702.692176,246.235482 C704.786219,251.034331 706.542161,256.329424 708.66238,261.804475 C709.751937,264.533275 710.644086,267.410403 711.566774,270.351879 C712.500368,273.290083 713.456866,276.294817 714.432996,279.36499 C721.990092,303.997263 727.30918,333.812294 728.749925,365.998391 C729.170915,382.101801 728.744472,398.764714 727.032155,415.60322 C725.139882,432.416642 722.125332,449.363122 717.981963,466.047847 C713.593197,482.671496 708.088699,498.979948 701.665876,514.632921 C695.070731,530.219364 687.434017,545.03581 679.321781,558.953563 C662.585796,586.482596 643.587807,610.068938 625.117692,628.035174 C622.785888,630.256823 620.503163,632.432665 618.271698,634.559427 C616.048958,636.694915 613.881842,638.788958 611.615476,640.658328 C607.12419,644.439603 603.038624,648.238328 598.895255,651.440469 C594.762791,654.654607 590.895355,657.663704 587.319122,660.445945 C583.607649,663.046049 580.199376,665.435658 577.119387,667.592958 C575.579393,668.672699 574.122288,669.693545 572.751344,670.654406 C571.334593,671.547646 570.007275,672.385263 568.770481,673.163986 C566.295801,674.715977 564.189761,676.03566 562.481807,677.105586 C559.069171,679.247617 557.248881,680.390616 557.248881,680.390616 L557.200892,680.418973 C557.200892,680.418973 555.323888,681.465994 551.803278,683.428069 C550.044063,684.410742 547.874765,685.623542 545.323741,687.047928 C544.046593,687.75794 542.674558,688.519212 541.210909,689.331744 C539.709088,690.072294 538.11238,690.85865 536.426239,691.690814 C533.053957,693.352961 529.31958,695.193974 525.255827,697.197494 C521.096098,698.994881 516.598268,700.940596 511.792875,703.018279 C506.992935,705.112322 501.698932,706.868265 496.222791,708.988483 C493.495082,710.07804 490.617954,710.97019 487.676478,711.892878 C484.738273,712.826472 481.732449,713.78297 478.663367,714.759099 C454.030003,722.316196 424.214973,727.635283 392.029965,729.074938 C375.926555,729.497019 359.262553,729.070576 342.425137,727.358259 C325.611715,725.465986 308.665235,722.451436 291.979419,718.306976 C275.35686,713.919301 259.048409,708.414803 243.395436,701.990889 C227.807902,695.396835 212.991456,687.760121 199.073704,679.647885 C171.544671,662.910809 147.958328,643.913911 129.992092,625.443796 C127.770443,623.111991 125.594601,620.828176 123.467839,618.597801 C121.332351,616.375062 119.238308,614.207945 117.368938,611.94158 C113.587663,607.450294 109.788938,603.364728 106.587888,599.221358 C103.372659,595.088895 100.363563,591.221459 97.5824115,587.645226 C94.9812173,583.932662 92.5916086,580.524388 90.4343079,577.445491 C89.3556576,575.905496 88.3337209,574.448391 87.3728604,573.077447 C86.4796201,571.660696 85.6420029,570.333378 84.8643712,569.097675 C83.3123799,566.620814 81.9926964,564.515865 80.9216806,562.807911 C78.7796489,559.394184 77.637741,557.573894 77.637741,557.573894 L77.6082935,557.525905 C77.6082935,557.525905 76.2122647,555.02396 73.4202072,550.017888 C72.0514446,547.500673 70.2126129,544.420685 68.2363597,540.6056 C66.3342705,536.752342 64.1137122,532.257784 61.5768662,527.119744 C59.1752604,521.920627 56.7038532,515.965692 53.8441755,509.402176 C52.5921122,506.049525 51.2767914,502.528915 49.8982129,498.840345 C49.2067424,496.99606 48.5010935,495.111422 47.7790849,493.183157 C47.1563252,491.222173 46.5204777,489.217563 45.8726331,487.170417 C40.4488432,470.878325 35.4624029,451.377548 32.2471741,428.692081 C31.3801094,423.03162 30.9122216,417.137761 30.1836691,411.097755 C29.6459799,405.038118 29.3809525,398.774529 28.9523281,392.346253 C28.9446935,385.903799 28.6360403,379.280296 28.8476259,372.4812 C29.1311942,365.685376 29.1802734,358.697597 29.9339108,351.571306 C30.870777,337.272918 33.2941957,322.395396 36.3414647,306.947465 C39.6210417,291.531163 44.1635885,275.670967 49.8840345,259.462855 C61.815718,227.283301 79.0174101,193.715353 104.027047,162.319974 C128.831643,130.887514 160.989384,101.375683 200.476276,77.9485755 C198.033226,73.8215655 196.811701,71.7580604 196.811701,71.7580604 L193.147125,65.568636 L189.480368,59.3792115 C189.480368,59.3792115 188.258843,57.3157065 185.815793,53.1897871 C143.145301,78.4949899 108.284935,110.464049 81.4353755,144.500976 C54.3676863,178.507364 35.7296115,214.820472 22.8392489,249.639393 C16.638918,267.168279 11.7342763,284.326345 8.18858129,301.001255 C4.87519424,317.709974 2.28163453,333.80684 1.25097266,349.275494 C0.45043741,356.987462 0.375182734,364.548921 0.0796172662,371.903157 C-0.14287482,379.259574 0.170141007,386.430581 0.197407194,393.403091 C0.646753957,400.361422 0.943410072,407.140886 1.52690647,413.69895 C2.30017554,420.240653 2.82804892,426.61985 3.76164317,432.748199 C7.24408058,457.312852 12.6482388,478.431059 18.5104691,496.073373 C19.216118,498.288478 19.9064978,500.457776 20.5826993,502.582357 C21.3625122,504.669856 22.1237842,506.711548 22.8686964,508.708524 C24.3639741,512.699203 25.7894504,516.509925 27.1483971,520.138509 C30.227295,527.24735 32.9135597,533.687623 35.514754,539.311001 C38.2577324,544.86785 40.6593381,549.729957 42.7173899,553.897321 C44.8539683,558.02324 46.8302216,561.355168 48.3145928,564.074153 C51.336777,569.481583 52.849505,572.185298 52.849505,572.185298 L52.8789525,572.237649 C52.8789525,572.237649 54.1113842,574.205177 56.4224662,577.898109 C57.5796432,579.743485 59.0073007,582.019666 60.6847165,584.695024 C61.5277871,586.028886 62.4341151,587.464178 63.4026101,588.993266 C64.4398158,590.477637 65.5413698,592.055804 66.7061813,593.722314 C69.0423482,597.05097 71.6282734,600.737358 74.4432345,604.74876 C77.4534216,608.619468 80.7079137,612.806463 84.1848978,617.279209 C87.6575194,621.756317 91.7529007,626.195252 95.8559165,631.048633 C97.8856115,633.497137 100.146524,635.847482 102.457606,638.255632 C104.761053,640.671416 107.117942,643.142823 109.523911,645.667672 C128.986515,665.655968 154.510938,686.258299 184.322696,704.353232 C199.380176,713.144941 215.418147,721.403324 232.283919,728.532886 C249.21404,735.491217 266.856354,741.445062 284.83895,746.180653 C302.884803,750.674121 321.217496,753.935157 339.407315,755.974668 C357.623309,757.83095 375.657165,758.299928 393.085712,757.83095 C427.926446,756.296409 460.212883,750.502889 486.88794,742.332849 C490.212233,741.276012 493.465635,740.242078 496.647053,739.231047 C499.831744,738.229833 502.944452,737.255885 505.901197,736.08562 C511.832138,733.801804 517.556947,731.880083 522.754973,729.621353 C527.954089,727.372437 532.820558,725.266397 537.32057,723.319591 C541.71806,721.154656 545.757819,719.166406 549.406035,717.370109 C551.228506,716.469235 552.953911,715.615258 554.576794,714.812541 C556.161505,713.936751 557.645876,713.114403 559.026636,712.349859 C561.784883,710.809865 564.128685,709.499997 566.030774,708.438797 C569.832771,706.312035 571.859194,705.178852 571.859194,705.178852 L571.911545,705.148314 C571.911545,705.148314 573.880164,703.915882 577.572006,701.6048 C579.417381,700.447623 581.693563,699.021056 584.368921,697.34364 C585.702783,696.499479 587.138075,695.593151 588.667163,694.625747 C590.152624,693.58745 591.729701,692.486987 593.39621,691.321085 C596.724866,688.986009 600.411255,686.400083 604.422656,683.585122 C608.293364,680.574935 612.479269,677.319353 616.953105,673.842368 C621.430213,670.369747 625.870239,666.274365 630.722529,662.17244 C633.171033,660.141655 635.521378,657.880742 637.929528,655.56966 C640.345312,653.267304 642.81781,650.910414 645.341568,648.503355 C665.329865,629.041842 685.932196,603.516328 704.028219,573.70457 C712.818837,558.648181 721.07722,542.61021 728.207873,525.744437 C735.165114,508.813226 741.118958,491.172003 745.85455,473.188317 C750.348017,455.142463 753.610144,436.81086 755.648564,418.619951 C757.504846,400.403957 757.974915,382.371191 757.504846,364.941554 C755.970305,330.10082 750.176786,297.815473 742.006745,271.139327 C740.949908,267.816124 739.915974,264.561632 738.904944,261.380213 C737.903729,258.195522 736.930872,255.083905 735.759517,252.126069 C733.476791,246.195128 731.55398,240.470319 729.29634,235.273384 C727.046334,230.073177 724.940294,225.206708 722.993488,220.706696 C720.828553,216.309206 718.840302,212.269447 717.044006,208.621232 C716.143131,206.79876 715.290245,205.073355 714.487528,203.450472 C713.610647,201.866852 712.788299,200.382481 712.023755,199.00063 C710.484852,196.243473 709.173894,193.898581 708.113784,191.997583 C705.987022,188.195586 704.852748,186.168072 704.852748,186.168072 L704.82221,186.116812 C704.82221,186.116812 703.178604,183.491623 699.891393,178.240155 C698.21834,175.633508 696.24754,172.297217 693.657252,168.439597 C690.9928,164.632147 687.884455,160.188849 684.331125,155.110794 C680.65019,150.127626 676.294144,144.675479 671.542193,138.558037 C669.011891,135.623105 666.357255,132.539845 663.576104,129.310437 C662.182256,127.696279 660.758961,126.04722 659.302947,124.361079 C657.766224,122.746921 656.195692,121.097862 654.59244,119.413902 C641.94202,105.791715 626.021839,90.9000144 606.156786,76.0366705 C601.232512,72.2717554 595.891612,68.7435108 590.527807,64.9197007 C585.05821,61.2551252 579.255965,57.7356058 573.370832,53.9957755 C567.26975,50.6202216 561.132676,46.8978417 554.574613,43.5560978 C547.984921,40.2787022 541.317793,36.7101036 534.17078,33.7053698 C520.112334,27.1713007 504.750564,21.7060662 488.50646,16.5789324 C472.181649,11.6710187 454.777096,7.72287482 436.425862,4.73122878 C399.699399,-0.705648921 358.897186,-1.82138129 316.066368,5.56339281 C273.311896,12.7431252 228.519004,27.9402072 185.815793,53.1897871" id="Fill-7" fill="#6674A4" opacity="0.1" mask="url(#mask-6)"></path>
            </g>
            <g id="Group-12">
                <path d="M232.838787,66.7837453 C235.895576,71.9461698 237.42397,74.5280644 237.42397,74.5280644 L242.011882,82.2723834 L246.597065,90.0167025 C246.597065,90.0167025 248.125459,92.5985971 251.182247,97.7623862 C300.639448,68.5318462 352.361947,51.0044393 401.768656,42.6992541 C451.258607,34.1457049 498.434133,35.4653095 540.91667,41.7330906 C562.140881,45.2074582 582.273381,49.7639836 601.158602,55.4395119 C619.940111,61.3879677 637.721341,67.6789476 653.971447,75.252687 C662.243881,78.7120436 669.940438,82.8632716 677.567398,86.6392241 C685.152054,90.497055 692.235889,94.8202273 699.297889,98.7039863 C706.09242,103.04217 712.805073,107.099238 719.130169,111.335073 C725.318801,115.766052 731.501975,119.827214 737.189785,124.183137 C760.147085,141.357103 778.542402,158.558361 793.154942,174.30901 C795.009485,176.252254 796.825818,178.154559 798.603941,180.018654 C800.28381,181.968722 801.926834,183.879214 803.534377,185.744674 C806.753557,189.475594 809.825357,193.037298 812.748411,196.428423 C818.23016,203.513622 823.276591,209.807331 827.535625,215.570196 C831.645914,221.444962 835.243099,226.584187 838.324451,230.989238 C841.32256,235.452968 843.597411,239.32308 845.533832,242.33893 C849.34663,248.412932 851.251664,251.450616 851.251664,251.450616 L851.287145,251.51066 C851.287145,251.51066 852.597197,253.859201 855.05218,258.262887 C856.283083,260.464048 857.799196,263.178312 859.581413,266.3702 C860.469792,267.968191 861.422309,269.68627 862.438964,271.517614 C863.365553,273.39672 864.350822,275.393185 865.390675,277.504279 C867.470383,281.722374 869.773892,286.394894 872.280731,291.480899 C874.531019,296.684262 876.964168,302.312028 879.563803,308.325987 C882.183907,314.330393 884.380974,320.955709 887.03383,327.80619 C888.397103,331.220514 889.513376,334.820428 890.66786,338.500856 C891.83599,342.17719 893.032777,345.936767 894.254128,349.778222 C903.709703,380.598565 910.365041,417.903667 912.167727,458.175491 C912.694477,478.324367 912.160904,499.173302 910.018423,520.241943 C907.650776,541.279199 903.878918,562.48294 898.694659,583.359167 C893.203357,604.158976 886.31603,624.564403 878.279679,644.149684 C870.027714,663.651722 860.472521,682.190325 850.322346,699.604467 C829.38198,734.049288 805.611355,763.560943 782.501216,786.040621 C779.58362,788.820388 776.727433,791.54284 773.935385,794.203883 C771.154253,796.875844 768.442718,799.495949 765.607001,801.834938 C759.987422,806.566137 754.875489,811.31917 749.691231,815.325746 C744.520618,819.347333 739.681613,823.112369 735.206966,826.59356 C730.563104,829.846856 726.298611,832.836777 722.444874,835.536031 C720.518006,836.887022 718.69485,838.164323 716.9795,839.366569 C715.206836,840.484207 713.546071,841.532249 711.998572,842.5066 C708.902209,844.44848 706.267094,846.099691 704.130071,847.438401 C699.86012,850.118549 697.582539,851.54869 697.582539,851.54869 L697.522495,851.58417 C697.522495,851.58417 695.173954,852.894223 690.768903,855.349206 C688.567743,856.578744 685.853478,858.096222 682.66159,859.878438 C681.0636,860.766818 679.346885,861.719335 677.515542,862.73599 C675.636435,863.662579 673.638606,864.646483 671.528876,865.687701 C667.309416,867.767409 662.636897,870.070918 657.552256,872.577757 C652.347528,874.82668 646.719762,877.261194 640.707168,879.860829 C634.701398,882.480933 628.077446,884.678 621.2256,887.330856 C617.812641,888.694129 614.212727,889.810402 610.532299,890.964886 C606.855965,892.133016 603.095023,893.329803 599.254933,894.551154 C568.433225,904.006729 531.128124,910.662067 490.857665,912.463388 C470.708789,912.991503 449.858489,912.45793 428.791212,910.315449 C407.753957,907.947802 386.550216,904.175944 365.672623,898.99032 C344.87418,893.500383 324.468752,886.613056 304.883471,878.57534 C285.380069,870.32474 266.841465,860.769547 249.427323,850.619372 C214.982503,829.677641 185.470847,805.908381 162.99117,782.798241 C160.211403,779.880646 157.488951,777.023095 154.827907,774.23241 C152.155946,771.451279 149.535842,768.739744 147.196853,765.904026 C142.465654,760.284448 137.712621,755.172515 133.707409,749.988257 C129.684457,744.817644 125.919422,739.978639 122.439595,735.503992 C119.184934,730.858765 116.195013,726.594272 113.49576,722.7419 C112.146133,720.815031 110.867467,718.991875 109.665222,717.276526 C108.547583,715.503861 107.499542,713.843097 106.526555,712.296963 C104.584675,709.19787 102.933464,706.56412 101.59339,704.427097 C98.913241,700.155781 97.4844653,697.8782 97.4844653,697.8782 L97.4476201,697.818156 C97.4476201,697.818156 95.7008838,694.687677 92.2074113,688.42399 C90.4947909,685.274406 88.1940117,681.42067 85.7212882,676.647167 C83.34136,671.825902 80.5629576,666.20223 77.3888102,659.773421 C74.383878,653.268193 71.2916089,645.817271 67.7135288,637.604882 C66.1469247,633.409985 64.5011716,629.004935 62.7762695,624.38973 C61.9110892,622.082127 61.0281686,619.724033 60.1247784,617.311354 C59.3455703,614.857735 58.5499865,612.349531 57.7393917,609.788106 C50.9530483,589.403148 44.7139246,565.003425 40.6909726,536.618961 C39.6060856,529.536491 39.020656,522.161989 38.109078,514.604625 C37.4363116,507.022698 37.1047047,499.185583 36.568402,491.142409 C36.5588496,483.081494 36.1726571,474.794049 36.4373968,466.286897 C36.7922026,457.78384 36.8536113,449.040606 37.796576,440.124063 C38.9687998,422.233662 42.0010248,403.618639 45.8138226,384.28991 C49.9172882,365.000756 55.6010044,345.156194 62.7585292,324.876313 C77.6876659,284.612677 99.2107321,242.611857 130.50324,203.329396 C161.539195,164.000537 201.775539,127.074805 251.182247,97.7623862 C248.125459,92.5985971 246.597065,90.0167025 246.597065,90.0167025 L242.011882,82.2723834 L237.42397,74.5280644 C237.42397,74.5280644 235.895576,71.9461698 232.838787,66.7837453 C179.448701,98.4460697 135.830785,138.446331 102.236134,181.033945 C68.3685549,223.583349 45.0482608,269.018962 28.9196076,312.585021 C21.1616421,334.517479 15.0248663,355.985959 10.5884291,376.849905 C6.44265966,397.756155 3.19755116,417.896844 1.90796851,437.2515 C0.906324421,446.900854 0.812164419,456.361887 0.442347596,465.563639 C0.1639615,474.768121 0.555612527,483.740614 0.58972847,492.464743 C1.15195921,501.171131 1.52314067,509.653719 2.25322185,517.859286 C3.22075,526.044383 3.88123466,534.026149 5.04936455,541.694048 C9.4066528,572.429784 16.1684327,598.853264 23.5033605,620.927644 C24.3862811,623.699223 25.2500968,626.413488 26.0961721,629.071802 C27.0718881,631.683718 28.0244052,634.23832 28.9564528,636.736972 C30.8273711,641.730181 32.6109526,646.498226 34.3112912,651.038375 C38.1636635,659.933084 41.5247662,667.99127 44.7794272,675.027342 C48.2114911,681.980171 51.2164233,688.063726 53.7914947,693.278007 C56.46482,698.440431 58.9375436,702.609399 60.7948155,706.011441 C64.5762267,712.777315 66.4689792,716.160252 66.4689792,716.160252 L66.5058244,716.225755 C66.5058244,716.225755 68.047865,718.687561 70.9395324,723.308224 C72.387413,725.617191 74.1737238,728.46519 76.2725366,731.812647 C77.3274015,733.481599 78.4614155,735.277462 79.6732138,737.190684 C80.9709843,739.047956 82.3492684,741.022587 83.8067014,743.107753 C86.7297554,747.272628 89.9653115,751.885103 93.4874415,756.904241 C97.2538416,761.74734 101.325921,766.986184 105.676386,772.582563 C110.021392,778.184401 115.145607,783.738477 120.279374,789.811115 C122.818965,792.874726 125.647859,795.815521 128.539526,798.828641 C131.421641,801.851313 134.370623,804.943582 137.381014,808.102719 C161.732974,833.112434 193.669591,858.890441 230.970598,881.531145 C249.810787,892.53149 269.877784,902.864527 290.980542,911.785164 C312.163813,920.491552 334.238193,927.94111 356.73834,933.866367 C379.317636,939.488674 402.255831,943.568941 425.015259,946.120813 C447.807438,948.443427 470.371723,949.030221 492.178634,948.443427 C535.771986,946.523381 576.169356,939.274426 609.545666,929.051925 C613.705082,927.729591 617.775796,926.435914 621.756444,925.170895 C625.741186,923.918158 629.635862,922.699536 633.335395,921.23528 C640.756295,918.377728 647.919279,915.973237 654.423142,913.147072 C660.92837,910.333189 667.017384,907.698074 672.647879,905.262195 C678.150098,902.553389 683.204716,900.065655 687.769429,897.818096 C690.049739,896.690906 692.208596,895.622394 694.239177,894.618021 C696.221996,893.522217 698.079267,892.49328 699.806899,891.536669 C703.258068,889.609801 706.190674,887.970871 708.570602,886.643078 C713.327729,883.982035 715.863226,882.564176 715.863226,882.564176 L715.928729,882.525966 C715.928729,882.525966 718.3919,880.983926 723.011199,878.092258 C725.320166,876.644378 728.168165,874.859431 731.515621,872.760619 C733.184573,871.704389 734.980436,870.570375 736.893658,869.359941 C738.752295,868.060806 740.725561,866.683887 742.810727,865.225089 C746.975602,862.3034 751.588077,859.067844 756.607215,855.545714 C761.450314,851.779314 766.687794,847.70587 772.285538,843.355405 C777.887375,839.010398 783.442816,833.886184 789.514089,828.753781 C792.5777,826.212826 795.518495,823.383932 798.531615,820.492265 C801.554287,817.611514 804.647921,814.662532 807.805693,811.650777 C832.815408,787.300181 858.593415,755.3622 881.235484,718.061192 C892.234464,699.222369 902.567501,679.155371 911.489502,658.052613 C920.194526,636.867977 927.644084,614.794962 933.569341,592.293451 C939.191648,569.714155 943.27328,546.777324 945.823787,524.016531 C948.146401,501.224352 948.73456,478.661432 948.146401,456.853157 C946.226356,413.259805 938.9774,372.863799 928.754899,339.486125 C927.432565,335.328073 926.138888,331.255995 924.873869,327.275346 C923.621132,323.290604 922.403875,319.397293 920.938254,315.696395 C918.082067,308.275495 915.676211,301.112512 912.851411,294.610013 C910.036163,288.10342 907.401048,282.014407 904.965169,276.383912 C902.256364,270.881692 899.768629,265.827074 897.521071,261.262361 C896.39388,258.982051 895.326733,256.823195 894.32236,254.792614 C893.225191,252.81116 892.196254,250.953888 891.239643,249.224892 C889.314139,245.775088 887.673845,242.841116 886.347417,240.462553 C883.686373,235.705426 882.26715,233.168564 882.26715,233.168564 L882.22894,233.104426 C882.22894,233.104426 880.172431,229.819743 876.059413,223.249013 C873.966059,219.987529 871.500159,215.813102 868.259144,210.986378 C864.925334,206.222428 861.036116,200.662894 856.590127,194.30914 C851.984474,188.074111 846.534111,181.252287 840.588385,173.598034 C837.422425,169.925794 834.100897,166.067963 830.621071,162.027271 C828.877064,160.007607 827.096212,157.944274 825.27442,155.834545 C823.351646,153.814881 821.386567,151.751548 819.38055,149.644548 C803.552117,132.600223 783.6325,113.967459 758.776989,95.3701763 C752.615649,90.6594469 745.933018,86.2448438 739.22173,81.460424 C732.378072,76.8752412 725.118199,72.4715553 717.754614,67.7922126 C710.120831,63.5686588 702.442014,58.9111503 694.236448,54.7299003 C685.991307,50.6291639 677.649276,46.1640693 668.706805,42.4044924 C651.116625,34.2289478 631.895703,27.3907481 611.570788,20.9755862 C591.144891,14.8347164 569.368002,9.89472789 546.406608,6.15152661 C500.453797,-0.651192436 449.401335,-2.04721683 395.810647,7.19274519 C342.315484,16.1761553 286.269813,35.1910174 232.838787,66.7837453" id="Fill-7" fill="#6674A4" opacity="0.05"></path>
                <mask id="mask-8" fill="white">
                    <use xlink:href="#path-7"></use>
                </mask>
                <g id="Clip-11"></g>
            </g>
        </g>
    </g>
</svg>