<?xml version="1.0" encoding="utf-8"?>
<!-- Generator: Adobe Illustrator 17.0.0, SVG Export Plug-In . SVG Version: 6.00 Build 0)  -->
<!DOCTYPE svg PUBLIC "-//W3C//DTD SVG 1.1//EN" "http://www.w3.org/Graphics/SVG/1.1/DTD/svg11.dtd">
<svg version="1.1" id="svg3353" xmlns="http://www.w3.org/2000/svg" xmlns:xlink="http://www.w3.org/1999/xlink" x="0px" y="0px"
	 width="100px" height="45px" viewBox="1367.5 777.5 100 45" enable-background="new 1367.5 777.5 100 45" xml:space="preserve">
<g>
	<g>
		<path fill="#ffffff" d="M1368.546,803.967c-0.012-0.148-0.035-0.296-0.035-0.444c-0.002-2.32,0.008-4.641-0.011-6.961
			c-0.003-0.379,0.106-0.607,0.408-0.842c2.353-1.836,4.688-3.695,7.029-5.546c0.042-0.033,0.085-0.065,0.152-0.116
			c0.08,0.15,0.046,0.299,0.046,0.437c0.003,2.307,0.001,4.614,0.005,6.921c0,0.124-0.083,0.301,0.062,0.366
			c0.118,0.053,0.204-0.107,0.295-0.179c1.756-1.382,3.51-2.769,5.264-4.154c0.041-0.033,0.084-0.063,0.132-0.098
			c0.114,0.108,0.058,0.237,0.059,0.348c0.004,1.788-0.004,3.576,0.01,5.364c0.002,0.28-0.096,0.442-0.311,0.604
			c-0.565,0.425-1.111,0.875-1.665,1.315c-1.274,0.984-2.548,1.968-3.888,3.003c-0.051-0.717-0.039-1.361-0.011-2.006
			c0-1.29,0-2.581,0-3.948c-0.872,0.691-1.687,1.337-2.501,1.983c-0.872,0.674-1.753,1.338-2.613,2.027
			C1370.166,802.684,1369.311,803.269,1368.546,803.967z"/>
		<path fill="#ffffff" d="M1376.087,801.976c-0.028,0.645-0.04,1.289,0.011,2.006c1.34-1.035,2.614-2.019,3.888-3.003
			c0.6,0.468,1.198,0.938,1.8,1.404c0.105,0.081,0.163,0.175,0.162,0.308c-0.001,1.923-0.001,3.845-0.001,5.846
			c-0.798-0.617-1.544-1.195-2.291-1.772c-1.075-0.831-2.151-1.663-3.227-2.493c-0.072-0.056-0.13-0.176-0.233-0.131
			c-0.127,0.055-0.06,0.193-0.06,0.29c-0.005,1.679-0.003,3.358-0.003,5.037c0,0.131,0,0.263,0,0.475
			c-0.796-0.618-1.532-1.189-2.269-1.76c-1.655-1.281-3.311-2.562-4.964-3.845c-0.135-0.105-0.296-0.191-0.355-0.372
			c0.765-0.698,1.619-1.283,2.426-1.928c0.861-0.689,1.741-1.352,2.613-2.027c0.198,0.302,0.516,0.472,0.79,0.683
			C1374.94,801.13,1375.45,801.638,1376.087,801.976z"/>
		<path fill="#ffffff" d="M1422.525,801.292c0,1.16-0.01,2.321,0.004,3.481c0.006,0.548,0.32,0.738,0.817,0.562
			c0.264-0.094,0.289-0.288,0.291-0.51c0.006-0.696,0.017-1.393,0.009-2.089c-0.003-0.21,0.05-0.279,0.27-0.276
			c0.792,0.013,1.584,0.005,2.376,0.006c0.116,0,0.252-0.036,0.25,0.165c-0.009,0.8,0.046,1.604-0.132,2.393
			c-0.243,1.073-0.986,1.673-1.979,1.982c-1.255,0.39-2.476,0.329-3.62-0.406c-0.732-0.471-1.03-1.176-1.104-1.991
			c-0.188-2.095-0.086-4.195-0.068-6.293c0.015-1.689,1.154-2.681,2.777-2.916c0.811-0.118,1.584-0.029,2.325,0.263
			c0.973,0.383,1.585,1.072,1.726,2.162c0.104,0.803,0.034,1.602,0.076,2.402c0.013,0.24-0.074,0.293-0.298,0.289
			c-0.751-0.013-1.502-0.015-2.253,0c-0.274,0.005-0.352-0.094-0.348-0.357c0.012-0.792,0.007-1.584-0.004-2.375
			c-0.006-0.422-0.191-0.622-0.529-0.615c-0.337,0.007-0.569,0.259-0.588,0.64c-0.003,0.055-0.004,0.109-0.004,0.164
			c0,1.106,0,2.212,0,3.317C1422.522,801.292,1422.523,801.292,1422.525,801.292z"/>
		<path fill="#ffffff" d="M1405.63,806.359c-0.621,0.772-1.364,0.973-2.233,0.802c-0.951-0.186-1.448-0.836-1.454-1.966
			c-0.011-2.074-0.013-4.149-0.005-6.223c0.002-0.444-0.195-1.025,0.081-1.296c0.255-0.251,0.831-0.059,1.266-0.069
			c0.382-0.009,0.765,0.017,1.146-0.008c0.299-0.02,0.389,0.058,0.387,0.377c-0.017,2.156-0.01,4.312-0.006,6.469
			c0,0.258,0.027,0.516,0.049,0.773c0.021,0.244,0.183,0.309,0.401,0.304c0.23-0.006,0.356-0.118,0.366-0.348
			c0.017-0.381,0.043-0.761,0.044-1.142c0.004-2.02,0.007-4.04-0.004-6.059c-0.001-0.276,0.057-0.382,0.356-0.373
			c0.736,0.021,1.474,0.013,2.21,0.003c0.226-0.003,0.339,0.03,0.338,0.307c-0.01,2.948-0.01,5.896,0,8.843
			c0.001,0.275-0.111,0.309-0.339,0.305c-0.669-0.011-1.337-0.004-2.006-0.004C1405.625,807.053,1405.625,807.053,1405.63,806.359z"
			/>
		<path fill="#ffffff" d="M1440.278,802.303c0-1.433,0.011-2.866-0.009-4.299c-0.005-0.318,0.089-0.381,0.385-0.372
			c0.682,0.023,1.365,0.024,2.047,0c0.319-0.012,0.443,0.071,0.389,0.398c-0.017,0.104-0.078,0.272,0.051,0.326
			c0.169,0.07,0.193-0.126,0.283-0.214c0.575-0.567,1.269-0.761,2.056-0.581c0.653,0.149,1.093,0.694,1.226,1.405
			c0.063,0.338,0.072,0.671,0.072,1.009c0.002,2.211-0.007,4.422,0.009,6.633c0.003,0.332-0.096,0.404-0.406,0.393
			c-0.641-0.023-1.284-0.026-1.924,0.001c-0.329,0.014-0.432-0.058-0.429-0.412c0.019-2.238,0.01-4.477,0.009-6.715
			c0-0.135,0.003-0.274-0.025-0.405c-0.059-0.279-0.201-0.477-0.53-0.412c-0.278,0.055-0.395,0.228-0.395,0.515
			c0,2.334-0.013,4.668-0.004,7.001c0.001,0.323-0.049,0.448-0.409,0.43c-0.694-0.034-1.392-0.022-2.088-0.003
			c-0.254,0.007-0.318-0.062-0.316-0.315C1440.285,805.224,1440.278,803.764,1440.278,802.303z"/>
		<path fill="#ffffff" d="M1409.488,802.024c0.035-0.532-0.066-1.35,0.059-2.167c0.21-1.371,1.064-2.22,2.447-2.375
			c0.64-0.072,1.281-0.063,1.906,0.103c1.289,0.342,2.051,1.327,2.13,2.757c0.034,0.612,0.014,1.227,0.045,1.84
			c0.014,0.271-0.093,0.31-0.329,0.307c-1.01-0.011-2.02,0.005-3.03-0.011c-0.281-0.004-0.38,0.066-0.37,0.36
			c0.022,0.641,0.004,1.283,0.01,1.924c0.001,0.135,0.029,0.27,0.049,0.404c0.031,0.214,0.135,0.347,0.371,0.355
			c0.251,0.008,0.414-0.087,0.481-0.342c0.138-0.525,0.086-1.062,0.059-1.588c-0.021-0.425,0.111-0.524,0.513-0.503
			c0.653,0.035,1.31,0.009,1.965,0.01c0.117,0,0.272-0.036,0.27,0.154c-0.015,0.946,0.091,1.905-0.508,2.755
			c-0.579,0.821-1.395,1.137-2.344,1.205c-0.574,0.042-1.146-0.014-1.701-0.167c-1.274-0.351-1.947-1.251-2.019-2.732
			C1409.461,803.647,1409.488,802.977,1409.488,802.024z M1413.188,800.222c-0.01,0-0.021,0-0.031,0c0-0.23,0.017-0.462-0.005-0.69
			c-0.02-0.211-0.103-0.403-0.362-0.415c-0.273-0.012-0.398,0.154-0.41,0.4c-0.02,0.419-0.019,0.84-0.029,1.259
			c-0.002,0.107,0.03,0.169,0.148,0.199c0.507,0.13,0.693-0.003,0.689-0.509C1413.187,800.385,1413.188,800.303,1413.188,800.222z"
			/>
		<path fill="#ffffff" d="M1427.569,802.316c0.02-0.86-0.052-1.822,0.158-2.774c0.259-1.172,1.29-1.892,2.404-2.003
			c0.828-0.082,1.637-0.049,2.385,0.338c0.923,0.477,1.413,1.231,1.493,2.296c0.084,1.116,0.063,2.23,0.04,3.342
			c-0.017,0.845-0.021,1.71-0.548,2.464c-0.435,0.622-1.037,0.951-1.746,1.093c-0.857,0.172-1.711,0.118-2.549-0.149
			c-0.96-0.306-1.399-1.062-1.556-1.986c-0.07-0.414-0.088-0.833-0.084-1.254C1427.572,803.26,1427.569,802.837,1427.569,802.316z
			 M1431.218,802.329c0.011,0,0.021,0,0.032,0c0-0.245,0.003-0.491-0.001-0.736c-0.009-0.695-0.016-1.39-0.034-2.084
			c-0.006-0.243-0.11-0.415-0.393-0.418c-0.272-0.003-0.393,0.142-0.419,0.394c-0.009,0.081-0.021,0.162-0.024,0.244
			c-0.075,1.676-0.018,3.353-0.028,5.029c-0.001,0.134,0.043,0.268,0.055,0.404c0.022,0.257,0.148,0.408,0.414,0.401
			c0.287-0.008,0.401-0.177,0.4-0.453C1431.216,804.182,1431.218,803.255,1431.218,802.329z"/>
		<path fill="#ffffff" d="M1447.815,802.028c0.051-0.661-0.08-1.591,0.14-2.524c0.278-1.183,1.271-1.782,2.297-1.956
			c0.644-0.109,1.29-0.074,1.912,0.116c1.329,0.406,1.918,1.258,2.06,2.58c0.065,0.605,0.092,1.216,0.088,1.828
			c-0.002,0.296-0.091,0.354-0.367,0.349c-1.009-0.017-2.019,0.002-3.029-0.013c-0.286-0.004-0.391,0.082-0.372,0.372
			c0.051,0.799-0.067,1.602,0.071,2.401c0.04,0.232,0.105,0.384,0.361,0.397c0.255,0.013,0.482-0.01,0.593-0.294
			c0.112-0.287,0.08-0.585,0.092-0.881c0.017-0.417-0.179-0.974,0.082-1.209c0.229-0.206,0.777-0.06,1.184-0.064
			c0.368-0.004,0.737,0.001,1.105-0.002c0.133-0.001,0.264,0.016,0.267,0.179c0.015,1.082,0.017,2.165-0.825,3.008
			c-0.816,0.817-1.847,0.925-2.916,0.811c-0.634-0.068-1.249-0.238-1.765-0.662c-0.685-0.563-0.938-1.319-0.971-2.163
			C1447.795,803.634,1447.815,802.965,1447.815,802.028z M1451.452,800.412c0-0.298,0.016-0.596-0.005-0.892
			c-0.016-0.225-0.102-0.416-0.388-0.426c-0.273-0.009-0.413,0.131-0.428,0.379c-0.027,0.445-0.029,0.893-0.041,1.339
			c-0.003,0.108,0.032,0.161,0.156,0.186C1451.344,801.116,1451.486,801.009,1451.452,800.412z"/>
		<path fill="#ffffff" d="M1394.409,802.436c0,1.42-0.007,2.84,0.007,4.259c0.003,0.284-0.069,0.372-0.36,0.364
			c-0.75-0.021-1.502-0.028-2.252,0.002c-0.347,0.014-0.396-0.118-0.395-0.419c0.01-2.785-0.001-5.57,0.015-8.355
			c0.002-0.361-0.088-0.487-0.452-0.451c-0.324,0.032-0.655-0.005-0.982,0.011c-0.246,0.012-0.369-0.031-0.355-0.327
			c0.027-0.572,0.016-1.147,0.004-1.72c-0.004-0.21,0.056-0.281,0.275-0.28c1.993,0.008,3.986,0.008,5.98,0
			c0.23-0.001,0.31,0.064,0.304,0.299c-0.015,0.573-0.014,1.147,0,1.72c0.005,0.226-0.055,0.319-0.294,0.308
			c-0.368-0.016-0.739,0.021-1.105-0.012c-0.35-0.031-0.397,0.122-0.394,0.422C1394.417,799.651,1394.409,801.044,1394.409,802.436z
			"/>
		<path fill="#ffffff" d="M1461.603,803.8c0.393,0,0.907-0.151,1.147,0.041c0.252,0.201,0.056,0.739,0.087,1.129
			c0.04,0.509,0.248,0.677,0.733,0.608c0.127-0.018,0.203-0.086,0.261-0.169c0.173-0.245,0.182-1.312-0.017-1.53
			c-0.263-0.287-0.636-0.432-0.965-0.632c-0.578-0.351-1.183-0.649-1.725-1.068c-0.42-0.326-0.645-0.741-0.749-1.221
			c-0.119-0.553-0.081-1.121,0.007-1.682c0.153-0.971,0.834-1.422,1.691-1.637c0.923-0.232,1.846-0.203,2.761,0.13
			c0.79,0.287,1.494,1.044,1.445,1.996c-0.042,0.828-0.008,0.83-0.819,0.83c-0.45,0-0.901-0.008-1.351,0.004
			c-0.228,0.006-0.323-0.073-0.313-0.307c0.012-0.272-0.015-0.546-0.001-0.818c0.016-0.31-0.172-0.411-0.422-0.414
			c-0.252-0.002-0.518,0.084-0.53,0.377c-0.04,0.948-0.141,1.193,0.836,1.735c0.717,0.398,1.492,0.697,2.122,1.257
			c0.689,0.612,0.735,1.406,0.682,2.218c-0.023,0.351-0.048,0.712-0.185,1.061c-0.326,0.833-1.008,1.193-1.799,1.356
			c-0.893,0.184-1.781,0.123-2.653-0.215c-0.841-0.327-1.308-0.908-1.414-1.79c-0.04-0.335-0.045-0.674-0.076-1.01
			c-0.019-0.205,0.038-0.292,0.264-0.278c0.326,0.02,0.655,0.005,0.982,0.005C1461.603,803.786,1461.603,803.793,1461.603,803.8z"/>
		<path fill="#ffffff" d="M1399.555,798.557c0.214-0.069,0.247-0.217,0.326-0.316c0.207-0.261,0.448-0.474,0.748-0.619
			c0.628-0.302,0.725-0.242,0.725,0.446c0,0.805-0.006,1.61,0.004,2.415c0.003,0.204-0.041,0.298-0.268,0.288
			c-0.16-0.007-0.324,0.037-0.484,0.068c-0.553,0.105-0.832,0.388-0.891,0.954c-0.146,1.388-0.032,2.78-0.07,4.17
			c-0.009,0.351,0.151,0.808-0.066,1.024c-0.216,0.216-0.673,0.056-1.024,0.064c-0.491,0.011-0.983-0.005-1.474,0.006
			c-0.212,0.005-0.317-0.027-0.316-0.281c0.009-2.961,0.008-5.922,0.001-8.883c-0.001-0.243,0.083-0.295,0.306-0.291
			c0.75,0.011,1.501,0.016,2.251-0.002c0.281-0.007,0.36,0.086,0.308,0.35C1399.594,798.134,1399.583,798.324,1399.555,798.557z"/>
		<path fill="#ffffff" d="M1435.106,802.311c0-1.446,0.007-2.893-0.006-4.339c-0.002-0.262,0.061-0.347,0.333-0.339
			c0.695,0.021,1.392,0.028,2.087-0.002c0.334-0.015,0.355,0.134,0.313,0.381c-0.022,0.132-0.063,0.263-0.063,0.395
			c0,0.094-0.077,0.232,0.059,0.285c0.157,0.062,0.167-0.113,0.213-0.186c0.251-0.398,0.593-0.687,1.016-0.88
			c0.417-0.191,0.499-0.138,0.499,0.301c0.001,0.819-0.004,1.637,0.003,2.456c0.002,0.199-0.009,0.3-0.267,0.326
			c-0.311,0.031-0.633,0.069-0.926,0.234c-0.275,0.155-0.387,0.381-0.443,0.667c-0.099,0.511-0.079,1.027-0.079,1.542
			c0,1.146-0.017,2.293,0.01,3.438c0.008,0.356-0.103,0.425-0.43,0.412c-0.64-0.027-1.283-0.024-1.923-0.001
			c-0.307,0.011-0.412-0.057-0.407-0.392C1435.118,805.176,1435.106,803.743,1435.106,802.311z"/>
		<path fill="#ffffff" d="M1455.345,802.286c0-1.433,0.009-2.866-0.007-4.298c-0.003-0.29,0.075-0.364,0.359-0.355
			c0.695,0.022,1.392,0.022,2.087,0c0.276-0.009,0.341,0.095,0.283,0.326c-0.062,0.246-0.179,0.621,0,0.7
			c0.227,0.101,0.28-0.306,0.439-0.468c0.269-0.275,0.564-0.498,0.922-0.624c0.209-0.074,0.38-0.067,0.371,0.265
			c-0.023,0.859-0.012,1.719-0.005,2.579c0.001,0.187-0.02,0.271-0.252,0.297c-0.299,0.034-0.618,0.042-0.896,0.193
			c-0.538,0.294-0.544,0.836-0.552,1.333c-0.024,1.473-0.014,2.947-0.003,4.421c0.002,0.252-0.042,0.355-0.327,0.346
			c-0.695-0.023-1.392-0.019-2.087-0.002c-0.262,0.007-0.342-0.06-0.34-0.333C1455.353,805.206,1455.345,803.746,1455.345,802.286z"
			/>
	</g>
</g>
</svg>
