<?xml version="1.0" encoding="utf-8"?>
<!-- Generator: Adobe Illustrator 17.0.0, SVG Export Plug-In . SVG Version: 6.00 Build 0)  -->
<!DOCTYPE svg PUBLIC "-//W3C//DTD SVG 1.1//EN" "http://www.w3.org/Graphics/SVG/1.1/DTD/svg11.dtd">
<svg version="1.1" id="svg3353" xmlns="http://www.w3.org/2000/svg" xmlns:xlink="http://www.w3.org/1999/xlink" x="0px" y="0px"
	 width="100px" height="45px" viewBox="1230 849.5 100 45" enable-background="new 1230 849.5 100 45" xml:space="preserve">
<g>
	<g>
		<path fill="#ffffff" d="M1243.858,864.523c1.116,0,2.141-0.012,3.166,0.003c1.685,0.024,3.371,0.106,5.055,0.088
			c2.14-0.022,3.94,2.205,3.783,4.346c-0.109,1.488-0.668,2.684-2.16,3.427c1.683,0.767,1.763,2.222,1.739,3.724
			c-0.007,0.473-0.053,0.955,0.021,1.417c0.074,0.463,0.275,0.906,0.419,1.358c0.053,0.167,0.156,0.343,0.131,0.499
			c-0.012,0.075-0.266,0.156-0.411,0.158c-0.884,0.012-1.769,0.021-2.652-0.017c-0.154-0.007-0.402-0.221-0.43-0.372
			c-0.125-0.68-0.204-1.371-0.265-2.061c-0.059-0.673-0.035-1.356-0.121-2.025c-0.111-0.857-0.743-1.397-1.634-1.422
			c-0.987-0.027-1.975,0.001-2.962-0.014c-0.364-0.005-0.522,0.126-0.52,0.502c0.008,1.603-0.018,3.206,0.012,4.809
			c0.008,0.438-0.119,0.6-0.54,0.596c-0.719-0.008-1.439-0.01-2.157,0.012c-0.341,0.01-0.49-0.103-0.479-0.455
			c0.016-0.514,0.004-1.028,0.004-1.542c0-4.094,0-8.187,0-12.281C1243.858,865.05,1243.858,864.826,1243.858,864.523z
			 M1247.034,867.1c0,1.336-0.01,2.523,0.015,3.71c0.003,0.121,0.21,0.343,0.318,0.342c1.329-0.024,2.665-0.01,3.984-0.153
			c0.923-0.1,1.265-0.66,1.286-1.644c0.025-1.151-0.329-1.904-1.2-2.01C1250.019,867.17,1248.579,867.175,1247.034,867.1z"/>
		<path fill="#ffffff" d="M1286.46,869.014c-1.062,0-2.043,0-3.062,0c-0.149-1.012-0.637-1.774-1.671-2.056
			c-1.142-0.312-2.285-0.381-3.326,0.31c-1.044,0.693-0.979,2.024,0.18,2.483c1.06,0.42,2.203,0.63,3.311,0.929
			c0.772,0.209,1.557,0.375,2.316,0.623c2.474,0.811,3.118,2.915,2.569,5.067c-0.416,1.629-1.563,2.662-3.106,3.144
			c-2.224,0.695-4.47,0.645-6.62-0.342c-1.71-0.785-2.673-2.44-2.54-4.26c0.973,0,1.951,0,2.967,0
			c-0.005-0.005,0.044,0.016,0.052,0.048c0.444,1.714,1.141,2.298,2.912,2.288c0.749-0.004,1.513-0.106,2.241-0.284
			c0.731-0.18,1.121-0.782,1.155-1.512c0.032-0.693-0.402-1.137-1.039-1.375c-0.288-0.108-0.572-0.233-0.869-0.307
			c-1.352-0.339-2.714-0.645-4.063-0.996c-1.885-0.491-2.984-1.64-3.123-3.212c-0.205-2.318,0.574-4.011,2.436-4.798
			c2.707-1.144,5.377-1.078,7.786,0.795C1286.033,866.387,1286.422,867.597,1286.46,869.014z"/>
		<path fill="#ffffff" d="M1316.516,874.903c1.045,0,2.026,0,3.003,0c0.439,2.043,1.575,2.394,3.319,2.388
			c0.606-0.002,1.231-0.099,1.812-0.27c0.803-0.236,1.224-0.847,1.239-1.581c0.014-0.713-0.274-1.148-1.191-1.427
			c-1.274-0.387-2.581-0.663-3.87-0.998c-0.495-0.129-0.987-0.277-1.472-0.44c-2.121-0.715-2.816-2.437-2.551-4.433
			c0.263-1.983,1.463-3.242,3.363-3.739c2.174-0.569,4.332-0.523,6.296,0.745c1.359,0.878,2.01,2.171,2.01,3.887
			c-0.955,0-1.874,0.012-2.791-0.017c-0.103-0.003-0.255-0.23-0.288-0.375c-0.203-0.888-0.743-1.441-1.602-1.701
			c-1.059-0.321-2.107-0.314-3.122,0.162c-0.608,0.285-0.975,0.782-0.958,1.457c0.018,0.697,0.453,1.149,1.105,1.324
			c1.525,0.409,3.064,0.762,4.589,1.17c1.099,0.294,2.163,0.672,2.871,1.661c1.3,1.816,1.004,5.386-2.191,6.635
			c-2.312,0.904-4.684,0.86-6.95-0.197C1317.403,878.344,1316.536,876.903,1316.516,874.903z"/>
		<path fill="#ffffff" d="M1304.554,864.539c3.656,0,7.269,0,10.934,0c0,0.872,0,1.725,0,2.651c-2.575,0-5.158,0-7.798,0
			c0,1.064,0,2.059,0,3.135c2.382,0,4.755,0,7.16,0c0,0.917,0,1.754,0,2.676c-2.382,0-4.756,0-7.173,0c0,1.288,0,2.491,0,3.75
			c2.731,0,5.42,0,8.219,0c0,0.886,0.014,1.719-0.022,2.551c-0.004,0.084-0.306,0.22-0.472,0.223
			c-1.153,0.02-2.306,0.011-3.459,0.011c-2.203,0-4.406,0-6.609,0c-0.243,0-0.486,0-0.781,0
			C1304.554,874.527,1304.554,869.577,1304.554,864.539z"/>
		<path fill="#ffffff" d="M1234.2,874.127c0,1.702-0.03,3.202,0.015,4.701c0.019,0.621-0.199,0.78-0.775,0.737
			c-0.634-0.048-1.275-0.032-1.912-0.012c-0.359,0.011-0.538-0.092-0.526-0.478c0.015-0.492-0.001-0.985-0.001-1.478
			c0.003-4.176,0.006-8.352,0.011-12.529c0-0.18,0.021-0.36,0.027-0.45c2.587,0,5.143-0.157,7.671,0.046
			c2.326,0.187,3.451,1.56,3.622,3.835c0.075,1-0.107,2.038-0.299,3.035c-0.259,1.346-1.304,2.013-2.513,2.309
			c-0.92,0.226-1.902,0.226-2.858,0.275C1235.864,874.159,1235.065,874.127,1234.2,874.127z M1234.201,869.349
			c0,0.555-0.02,1.111,0.013,1.663c0.01,0.165,0.16,0.454,0.261,0.46c1.222,0.078,2.473,0.268,3.644-0.213
			c0.733-0.301,1.069-0.925,1.058-1.767c-0.022-1.681-0.585-2.284-2.277-2.301c-0.72-0.007-1.44,0.02-2.16,0
			c-0.415-0.012-0.546,0.183-0.541,0.555C1234.205,868.281,1234.2,868.815,1234.201,869.349z"/>
		<path fill="#ffffff" d="M1303.64,864.537c0,0.894,0,1.747,0,2.671c-1.471,0-2.921,0-4.441,0c0,4.13,0,8.19,0,12.291
			c-1.089,0-2.106,0-3.2,0c0-4.082,0-8.14,0-12.261c-1.506,0-2.938,0-4.416,0c0-0.931,0-1.799,0-2.701
			C1295.604,864.537,1299.602,864.537,1303.64,864.537z"/>
		<path fill="#ffffff" d="M1287.784,864.542c1.06,0,2.04,0,3.076,0c0,4.958,0,9.926,0,14.987c-0.917,0-1.855,0.02-2.79-0.028
			c-0.104-0.005-0.267-0.399-0.269-0.613c-0.021-2.284-0.016-4.569-0.017-6.854c-0.001-2.243,0-4.487,0-6.73
			C1287.784,865.063,1287.784,864.822,1287.784,864.542z"/>
		<path fill="#ffffff" d="M1273.731,871.958c0.178,4.813-3.921,8.809-8.69,8.827c-4.934,0.019-8.829-3.953-8.834-8.718
			c-0.005-4.83,3.712-8.817,8.782-8.853C1269.726,863.182,1273.837,867.116,1273.731,871.958z M1273.281,871.945
			c0.099-4.562-3.854-8.375-8.438-8.292c-4.542,0.082-8.241,3.869-8.181,8.461c0.061,4.697,3.861,8.251,8.385,8.259
			C1269.586,880.38,1273.436,876.523,1273.281,871.945z"/>
		<path fill="#ffffff" d="M1257.189,871.815c-0.003-4.398,3.782-7.764,7.873-7.647c4.55,0.131,7.974,3.546,7.742,8.333
			c-0.19,3.912-3.485,7.65-8.492,7.304C1260.559,879.544,1256.932,876.147,1257.189,871.815z M1265.473,871.692
			c-0.025-0.089-0.049-0.178-0.074-0.266c0.933-0.792,1.865-1.583,2.798-2.375c-0.02-0.053-0.039-0.106-0.059-0.159
			c-0.255-0.018-0.51-0.048-0.766-0.049c-0.204-0.001-0.412,0.067-0.611,0.043c-0.167-0.02-0.324-0.128-0.485-0.198
			c0.086-0.138,0.148-0.304,0.264-0.409c0.561-0.508,1.139-0.996,1.706-1.497c0.26-0.23,0.51-0.473,0.89-0.827
			c-1.645,0.008-3.093-0.22-4.538,0.097c0.07,0.135,0.143,0.2,0.228,0.244c0.636,0.327,0.653,0.396,0.147,0.882
			c-0.428,0.412-0.875,0.805-1.311,1.209c-0.62,0.573-1.238,1.149-1.856,1.723c0.018,0.056,0.036,0.112,0.055,0.168
			c0.576,0,1.152,0,1.727,0c0.034,0.071,0.067,0.142,0.101,0.213c-0.92,0.835-1.841,1.669-2.761,2.503
			c0.025,0.052,0.05,0.104,0.074,0.156c0.929,0,1.859,0,2.99,0c-0.982,1.5-1.869,2.857-2.756,4.213c0.05,0.039,0.1,0.078,0.15,0.117
			c2.013-1.855,4.026-3.71,6.039-5.565c-0.029-0.075-0.059-0.149-0.088-0.223C1266.715,871.692,1266.094,871.692,1265.473,871.692z"
			/>
	</g>
</g>
</svg>
