<?xml version="1.0" encoding="utf-8"?>
<!-- Generator: Adobe Illustrator 17.0.0, SVG Export Plug-In . SVG Version: 6.00 Build 0)  -->
<!DOCTYPE svg PUBLIC "-//W3C//DTD SVG 1.1//EN" "http://www.w3.org/Graphics/SVG/1.1/DTD/svg11.dtd">
<svg version="1.1" id="svg3353" xmlns="http://www.w3.org/2000/svg" xmlns:xlink="http://www.w3.org/1999/xlink" x="0px" y="0px"
	 width="100px" height="45px" viewBox="1367.5 849.5 100 45" enable-background="new 1367.5 849.5 100 45" xml:space="preserve">
<g>
	<g>
		<path fill="#ffffff" d="M1446.878,867.033c-0.088-1.925,0.185-3.831,0.299-5.743c0.072-1.199-0.278-2.078-1.426-2.619
			c-0.84-0.396-0.839-1.204-0.15-1.933c0.885-0.936,2.196-1.309,3-2.339c0.049-0.063,0.113-0.113,0.168-0.171
			c1.146-1.181,1.655-1.014,2.177,0.684c0.838,2.724,1.04,5.455,0.356,8.259c-0.496,2.033,0.006,2.618,2.092,2.326
			c3.616-0.506,7.066,0.047,10.464,1.254c0.758,0.269,1.335,0.839,2.12,1.067c0.565,0.164,0.688,0.736,0.282,1.155
			c-0.588,0.606-0.688,1.324-0.73,2.086c-0.227,4.045-1.05,7.971-2.431,11.772c-0.319,0.88-0.73,1.778-2.002,1.705
			c-0.873-0.05-1.005-0.351-0.514-0.98c1.164-1.491,1.367-3.208,1.181-4.994c-0.247-2.36-1.435-4.185-3.455-5.399
			c-1.65-0.991-4.076-0.524-5.441,1.049c-2.051,2.365-2.502,5.095-1.539,8.047c0.181,0.554,0.557,1.052,0.881,1.551
			c0.346,0.532,0.171,0.631-0.394,0.702c-1.1,0.139-1.721-0.313-2.095-1.32C1447.784,877.977,1446.98,872.567,1446.878,867.033z"/>
		<path fill="#ffffff" d="M1390.036,880.135c0-2.956-0.022-5.913,0.02-8.868c0.008-0.554-0.333-1.511,0.62-1.525
			c0.81-0.011,2.034-0.655,2.355,0.855c0.118,0.554,0.416,0.426,0.794,0.254c0.693-0.315,1.193-0.905,1.934-1.176
			c2.878-1.052,5.783,0.345,6.88,3.169c1.125,2.894,0.956,5.659-0.183,8.484c-1.244,3.085-5.37,4.482-8.11,2.673
			c-0.226-0.149-0.433-0.429-0.734-0.314c-0.396,0.151-0.256,0.538-0.255,0.837c0.001,1.558-0.013,3.117,0.039,4.674
			c0.029,0.888-0.207,1.394-1.207,1.259c-0.272-0.036-0.56,0.007-0.835,0.048c-1.095,0.164-1.446-0.399-1.378-1.384
			C1390.182,886.127,1390.041,883.13,1390.036,880.135z M1393.36,877.458c-0.002,0-0.004,0-0.006,0c0,0.878,0.002,1.756-0.001,2.633
			c-0.001,0.368,0.052,0.707,0.325,0.991c1.595,1.659,4.883,1.042,5.595-1.099c0.612-1.84,0.842-3.704,0.178-5.621
			c-0.582-1.678-1.526-2.331-3.355-2.108c-1.565,0.191-2.706,1.406-2.733,2.929C1393.349,875.942,1393.36,876.7,1393.36,877.458z"/>
		<path fill="#ffffff" d="M1442.686,879.201c0,1.436-0.013,2.872,0.007,4.308c0.007,0.517,0.015,1.055-0.676,0.971
			c-0.736-0.089-1.777,0.576-2.13-0.604c-0.279-0.932-0.625-0.835-1.23-0.325c-1.119,0.943-2.44,1.295-3.888,1.25
			c-2.136-0.066-3.398-1.07-3.932-3.149c-0.495-1.928,0.304-3.799,1.995-4.799c1.432-0.846,2.952-1.356,4.615-1.486
			c0.693-0.054,1.648,0.213,1.72-0.961c0.066-1.075-0.734-2.029-1.832-2.148c-1.375-0.148-2.723-0.037-3.897,0.799
			c-0.682,0.485-1.061,0.339-1.468-0.398c-0.684-1.239-0.671-1.295,0.595-2.032c1.902-1.107,3.947-1.59,6.083-1.208
			c2.049,0.366,3.447,1.808,3.806,4.052C1442.758,875.37,1442.702,877.288,1442.686,879.201z M1439.264,878.661
			c0.033-1.398-0.042-1.531-0.934-1.386c-1.303,0.213-2.524,0.706-3.616,1.421c-0.805,0.527-0.702,1.429-0.593,2.283
			c0.104,0.818,0.698,1.023,1.348,1.099C1437.774,882.349,1439.287,881.494,1439.264,878.661z"/>
		<path fill="#ffffff" d="M1380.613,878.834c0,1.516,0.006,3.032-0.003,4.548c-0.004,0.607-0.135,1.167-0.921,1.081
			c-0.686-0.075-1.66,0.596-1.912-0.713c-0.187-0.97-0.749-0.642-1.183-0.238c-1.282,1.192-2.832,1.352-4.46,1.248
			c-1.969-0.126-3.304-1.689-3.598-3.678c-0.256-1.735,0.873-3.575,2.456-4.391c1.627-0.839,3.316-1.26,5.127-1.371
			c1.048-0.064,1.268-0.567,0.8-1.53c-0.805-1.656-3.098-2.146-4.992-1.066c-0.068,0.039-0.119,0.108-0.187,0.149
			c-1.089,0.652-2.321-0.029-2.368-1.301c-0.01-0.274,0.1-0.449,0.333-0.574c2.243-1.201,4.522-2.167,7.161-1.421
			c2.167,0.612,3.303,2.095,3.615,4.241C1380.724,875.477,1380.692,877.158,1380.613,878.834z M1377.257,879.036
			c0-0.239-0.023-0.482,0.004-0.718c0.118-1.019-0.314-1.274-1.26-1.005c-1.152,0.328-2.276,0.701-3.306,1.331
			c-0.77,0.471-0.825,1.215-0.798,1.988c0.026,0.724,0.422,1.126,1.114,1.366C1375.217,882.763,1377.229,881.373,1377.257,879.036z"
			/>
		<path fill="#ffffff" d="M1416.452,879.115c0,1.517-0.024,3.034,0.012,4.55c0.014,0.626-0.221,0.929-0.825,0.828
			c-0.799-0.135-1.96,0.61-2.169-1.041c-0.076-0.601-0.759-0.109-1.051,0.127c-1.257,1.018-2.699,1.317-4.259,1.192
			c-3.137-0.251-4.758-3.735-3.076-6.401c1.035-1.641,2.684-2.143,4.319-2.71c0.591-0.205,1.264-0.157,1.888-0.283
			c0.665-0.134,1.666,0.246,1.715-0.959c0.041-1.015-0.838-2.051-1.865-2.165c-1.419-0.158-2.83-0.039-4.004,0.844
			c-0.626,0.471-1.012,0.432-1.29-0.229c-0.268-0.638-1.031-1.441-0.046-1.972c1.494-0.805,3.019-1.571,4.82-1.588
			c2.999-0.027,5.65,1.425,5.741,5.26c0.036,1.515,0.006,3.032,0.006,4.548C1416.396,879.115,1416.424,879.115,1416.452,879.115z
			 M1413.07,879.07c0-0.239-0.021-0.479,0.004-0.715c0.107-0.991-0.315-1.305-1.259-1.043c-1.036,0.287-2.051,0.624-2.981,1.169
			c-0.834,0.489-1.224,1.252-1.066,2.197c0.137,0.815,0.656,1.285,1.523,1.442C1411.407,882.504,1413.055,881.2,1413.07,879.07z"/>
		<path fill="#ffffff" d="M1425.152,884.793c-4.048,0.029-6.402-2.609-6.816-6.683c-0.253-2.495,0.272-4.865,2.162-6.672
			c2.086-1.995,5.921-3.161,8.712-0.924c0.602,0.483,0.654,0.923,0.163,1.35c-0.476,0.414-0.616,1.541-1.7,0.91
			c-2.265-1.318-4.752-0.307-5.478,2.198c-0.359,1.24-0.485,2.445-0.181,3.76c0.825,3.559,3.557,3.901,5.921,2.727
			c0.924-0.459,1.264-0.053,1.601,0.536c0.344,0.601,0.533,1.215-0.298,1.733C1428.108,884.432,1426.923,884.81,1425.152,884.793z"
			/>
		<path fill="#ffffff" d="M1383.434,872.936c0-2.837,0.027-5.674-0.016-8.51c-0.014-0.887,0.284-1.176,1.17-1.191
			c2.318-0.04,2.275-0.079,2.262,2.238c-0.028,5.114-0.007,10.227-0.016,15.341c-0.001,0.603,0.089,0.968,0.797,1.227
			c0.887,0.324,0.77,1.32,0.742,2.081c-0.03,0.802-0.779,0.686-1.299,0.692c-2.292,0.025-3.413-0.492-3.556-3.251
			c-0.149-2.868-0.033-5.751-0.033-8.627C1383.468,872.936,1383.451,872.936,1383.434,872.936z"/>
	</g>
</g>
</svg>
