<?xml version="1.0" encoding="utf-8"?>
<!-- Generator: Adobe Illustrator 17.0.0, SVG Export Plug-In . SVG Version: 6.00 Build 0)  -->
<!DOCTYPE svg PUBLIC "-//W3C//DTD SVG 1.1//EN" "http://www.w3.org/Graphics/SVG/1.1/DTD/svg11.dtd">
<svg version="1.1" id="svg3353" xmlns="http://www.w3.org/2000/svg" xmlns:xlink="http://www.w3.org/1999/xlink" x="0px" y="0px"
	 width="100px" height="45px" viewBox="1230 926 100 45" enable-background="new 1230 926 100 45" xml:space="preserve">
<g>
	<g>
		<path fill="#ffffff" d="M1305.298,952.038c-0.095-0.539-0.195-1.076-0.285-1.616c-0.566-3.408-1.955-6.454-4.199-9.063
			c-1.874-2.178-4.067-3.955-6.738-5.162c-2.75-1.243-5.589-1.863-8.58-1.727c-2.524,0.115-4.941,0.695-7.26,1.762
			c-3.153,1.451-5.719,3.551-7.64,6.437c-0.238,0.357-0.493,0.321-0.836,0.187c-1.617-0.634-3.279-1.093-5.027-1.169
			c-1.853-0.08-3.652,0.164-5.436,0.715c-1.768,0.546-3.383,1.37-4.806,2.502c-1.886,1.5-3.417,3.303-4.033,5.73
			c-0.153,0.604-0.188,0.595-0.964,0.575c0.451-0.973,0.813-1.918,1.309-2.786c0.925-1.616,1.938-3.186,3.305-4.475
			c1.915-1.806,4.097-3.148,6.658-3.877c1.998-0.568,4.025-0.707,6.054-0.465c1.294,0.154,2.561,0.581,3.823,0.947
			c0.456,0.132,0.695,0.114,1.006-0.302c3.088-4.123,7.168-6.732,12.234-7.659c4.282-0.784,8.393-0.158,12.293,1.851
			c2.596,1.336,4.736,3.18,6.527,5.461c0.12,0.152,0.248,0.298,0.265,0.319c3.521-1.166,6.954-1.115,10.321,0.063
			c5.287,1.849,8.837,6.421,9.828,10.35c-0.632,0-1.231,0.03-1.822-0.021c-0.146-0.013-0.303-0.27-0.399-0.446
			c-1.341-2.459-3.136-4.502-5.485-6.044c-3.066-2.013-6.445-2.771-10.077-2.492c-0.407,0.031-0.811,0.107-1.322,0.176
			c1.529,3.262,1.455,6.741,1.467,10.21C1305.417,952.025,1305.358,952.031,1305.298,952.038z"/>
		<path fill="#ffffff" d="M1316.16,958.766c0.067,1.332-0.242,2.526-1.108,3.575c-1.446,1.752-3.781,2.368-5.841,1.442
			c-2.046-0.92-3.089-2.569-3.081-4.847c0.006-1.76,0.011-3.521-0.017-5.281c-0.008-0.477,0.121-0.668,0.619-0.643
			c1.441,0.071,1.419-0.32,1.396,1.369c-0.022,1.629-0.056,3.265,0.061,4.887c0.105,1.457,0.842,2.384,2.211,2.768
			c1.189,0.333,2.497-0.05,3.19-1.147c0.36-0.57,0.574-1.315,0.607-1.993c0.084-1.735,0.045-3.476,0.021-5.214
			c-0.007-0.513,0.159-0.714,0.675-0.667c0.383,0.035,0.772,0.007,1.281,0.007c0,0.615,0.001,1.166,0,1.717
			c-0.003,0.934-0.021,1.869,0.001,2.802c0.004,0.152,0.177,0.301,0.271,0.452c0.099-0.136,0.263-0.262,0.288-0.411
			c0.382-2.336,1.764-3.877,3.893-4.731c1.412-0.567,2.89-0.546,4.305,0.085c0.604,0.269,1.17,0.624,1.846,0.989
			c0.039-0.252,0.106-0.487,0.108-0.722c0.008-1.282,0.014-2.565-0.009-3.846c-0.009-0.52,0.206-0.708,0.702-0.632
			c0.149,0.023,0.302,0.044,0.452,0.039c0.856-0.032,0.975,0.066,0.968,0.904c-0.022,2.973-0.044,5.947-0.084,8.92
			c-0.018,1.332-0.386,2.551-1.204,3.633c-1.434,1.899-3.351,2.658-5.674,2.428c-3.105-0.307-5.247-3.032-5.347-5.549
			c-0.006-0.162-0.201-0.316-0.307-0.474C1316.31,958.672,1316.235,958.719,1316.16,958.766z M1322.805,962.672
			c2.29-0.012,4.091-1.845,4.077-4.149c-0.013-2.161-1.896-4.075-4.067-4.073c-2.273,0.002-4.157,1.804-4.146,4.188
			C1318.681,960.966,1320.669,962.72,1322.805,962.672z"/>
		<path fill="#ffffff" d="M1292.685,948.737c0,3.127,0,6.175,0,9.224c0.08,0.023,0.161,0.047,0.242,0.07
			c0.08-0.19,0.214-0.376,0.231-0.572c0.109-1.254,0.752-2.245,1.572-3.123c1.726-1.848,4.58-2.406,6.941-1.332
			c2.278,1.036,3.484,2.856,3.57,5.354c0.092,2.675-1.108,4.638-3.521,5.778c-2.72,1.285-5.725,0.435-7.519-1.939
			c-0.442-0.585-0.642-1.351-0.973-2.025c-0.079-0.161-0.235-0.285-0.356-0.427c-0.049,0.034-0.097,0.068-0.146,0.102
			c0,1.121-0.041,2.243,0.014,3.361c0.038,0.79-0.06,0.97-0.846,0.975c-1.15,0.008-1.153,0.008-1.153-1.151
			c-0.001-4.521,0-9.041,0.001-13.562c0-0.806,0.029-0.82,0.858-0.741C1291.917,948.763,1292.24,948.737,1292.685,948.737z
			 M1299.118,962.672c2.261,0.004,4.137-1.812,4.154-4.009c0.019-2.345-1.805-4.229-4.103-4.203
			c-2.352,0.026-4.083,1.723-4.128,4.125C1295,960.807,1296.901,962.691,1299.118,962.672z"/>
		<path fill="#ffffff" d="M1289.652,960.047c-0.648,2.44-4.298,4.946-7.909,4.642c-4.216-0.355-7.283-3.824-7.57-7.601
			c-0.338-4.449,3.009-8.063,6.723-8.74c4.078-0.743,7.837,1.91,8.758,4.421c-1.067,0.427-2.027,0.251-2.785-0.529
			c-1.733-1.783-3.782-2.438-6.209-1.752c-2.423,0.685-4.278,3.029-4.485,5.539c-0.25,3.035,2.108,6.081,5.138,6.576
			c2.141,0.349,4.079-0.203,5.48-1.83C1287.688,959.734,1288.607,959.959,1289.652,960.047z"/>
		<path fill="#ffffff" d="M1246.486,960.047c-1.177,2.897-4.54,4.862-7.903,4.61c-4.43-0.332-7.549-4.216-7.583-7.993
			c-0.039-4.332,3.049-7.56,6.555-8.218c4.503-0.846,7.901,1.787,8.937,4.431c-1.049-0.004-1.988,0.289-2.882-0.736
			c-1.702-1.952-4.175-2.44-6.508-1.555c-3.908,1.483-5.526,6.125-2.829,9.648c2.54,3.318,7.218,3.247,9.718,0.227
			c0.177-0.213,0.522-0.362,0.806-0.396C1245.332,960.003,1245.879,960.047,1246.486,960.047z"/>
		<path fill="#ffffff" d="M1247.308,958.589c-0.039-3.328,2.598-6.1,6.099-6.084c3.594,0.016,6.014,2.777,6.061,5.99
			c0.051,3.532-2.675,6.19-6.07,6.197C1250.15,964.699,1247.251,962.109,1247.308,958.589z M1253.381,962.691
			c2.122,0.106,4.145-1.791,4.146-4.09c0.001-2.516-1.962-4.139-4.169-4.171c-2.212-0.032-4.15,1.93-4.122,4.16
			C1249.264,960.834,1251.095,962.725,1253.381,962.691z"/>
		<path fill="#ffffff" d="M1265.261,964.107c-0.652,0-1.247,0-1.877,0c-0.015-0.22-0.036-0.388-0.036-0.556
			c-0.004-3.281,0.008-6.562-0.018-9.843c-0.004-0.561,0.179-0.73,0.713-0.669c0.469,0.054,1.01-0.209,1.355,0.408
			c1.214-0.828,2.519-1.116,3.959-0.839c2.159,0.416,3.857,2.302,3.965,4.397c0.117,2.296,0.032,4.602,0.034,6.903
			c0,0.04-0.028,0.08-0.071,0.195c-0.568,0-1.164,0-1.827,0c-0.038-0.504-0.093-0.992-0.107-1.481
			c-0.052-1.799-0.057-3.599-0.144-5.396c-0.063-1.319-0.814-2.249-1.957-2.598c-1.259-0.385-2.394-0.036-3.242,1.025
			c-0.481,0.602-0.779,1.259-0.76,2.079c0.043,1.889,0.014,3.78,0.014,5.671C1265.261,963.618,1265.261,963.832,1265.261,964.107z"
			/>
		<path fill="#ffffff" d="M1262.226,958.671c-0.001,1.649-0.01,3.298,0.006,4.947c0.004,0.389-0.115,0.545-0.518,0.545
			c-1.415-0.001-1.387,0.009-1.386-1.397c0.003-2.711-0.03-5.423-0.044-8.134c-0.001-0.149,0.038-0.298,0.047-0.448
			c0.069-1.187,0.312-1.366,1.515-1.162c0.506,0.086,0.369,0.482,0.372,0.766C1262.237,955.415,1262.227,957.043,1262.226,958.671z"
			/>
		<path fill="#ffffff" d="M1259.957,950.129c0.001-0.807,0.541-1.361,1.316-1.35c0.872,0.012,1.38,0.512,1.377,1.356
			c-0.002,0.775-0.571,1.385-1.3,1.395C1260.475,951.542,1259.956,951.02,1259.957,950.129z"/>
	</g>
</g>
</svg>
