<?xml version="1.0" encoding="utf-8"?>
<!-- Generator: Adobe Illustrator 17.0.0, SVG Export Plug-In . SVG Version: 6.00 Build 0)  -->
<!DOCTYPE svg PUBLIC "-//W3C//DTD SVG 1.1//EN" "http://www.w3.org/Graphics/SVG/1.1/DTD/svg11.dtd">
<svg version="1.1" id="svg3353" xmlns="http://www.w3.org/2000/svg" xmlns:xlink="http://www.w3.org/1999/xlink" x="0px" y="0px"
	 width="100px" height="45px" viewBox="1367.5 926 100 45" enable-background="new 1367.5 926 100 45" xml:space="preserve">
<g>
	<g>
		<path fill="#ffffff" d="M1382.586,961.711c-3.156,0.102-6.047-0.678-8.645-2.52c-6.49-4.602-7.312-14.24-1.724-19.9
			c2.574-2.607,5.696-3.987,9.294-4.016c6.521-0.053,11.91,4.437,13.123,10.661c0.024,0.123,0.003,0.256-0.108,0.414
			c-0.169-0.416-0.339-0.831-0.507-1.247c-1.822-4.52-6.156-7.371-11.162-7.342c-4.778,0.028-9.088,2.994-10.843,7.462
			c-2.923,7.441,2.15,15.614,10.061,16.207c0.16,0.012,0.323-0.011,0.484-0.018C1382.568,961.512,1382.577,961.611,1382.586,961.711
			z"/>
		<path fill="#ffffff" d="M1385.696,946.6c0.303-1.377,1.235-1.629,2.481-1.466c0.771,0.101,1.717-0.211,2.301,0.138
			c0.596,0.356,0.62,1.381,0.881,2.116c1.232,3.463,2.439,6.934,3.653,10.403c0.087,0.25,0.161,0.505,0.257,0.81
			c-1.151,0-2.235-0.037-3.314,0.015c-0.602,0.029-0.92-0.153-0.975-0.758c-0.078-0.85-0.507-1.157-1.383-1.067
			c-0.912,0.094-1.841,0.046-2.761,0.011c-0.483-0.018-0.714,0.117-0.847,0.614c-0.319,1.194-0.35,1.186-1.601,1.186
			c-0.893,0-1.786,0-2.758,0c0.233-0.764,0.451-1.475,0.669-2.187c0.977-2.729,1.96-5.456,2.925-8.189
			c0.147-0.417,0.414-0.809,0.343-1.287l-0.024-0.01c0.275-0.009,0.121-0.222,0.162-0.342L1385.696,946.6z M1388.547,949.253
			c-0.061-0.006-0.121-0.012-0.181-0.018c-0.442,1.484-0.88,2.968-1.328,4.45c-0.109,0.359,0.002,0.492,0.372,0.484
			c0.674-0.014,1.349-0.016,2.022,0.002c0.395,0.011,0.519-0.072,0.387-0.505C1389.37,952.203,1388.967,950.725,1388.547,949.253z"
			/>
		<path fill="#ffffff" d="M1459.04,951.925c0.87-1.014,1.624-1.859,2.336-2.738c0.285-0.352,0.593-0.478,1.037-0.467
			c1.101,0.028,2.204,0.009,3.531,0.009c-1.124,1.121-2.083,2.132-3.106,3.072c-0.463,0.426-0.429,0.713-0.097,1.193
			c1.243,1.799,2.441,3.629,3.758,5.601c-1.532,0-2.919,0.004-4.305-0.003c-0.262-0.001-0.328-0.25-0.438-0.428
			c-0.51-0.829-1.006-1.667-1.531-2.487c-0.146-0.228-0.218-0.702-0.542-0.579c-0.342,0.13-0.692,0.436-0.692,0.914
			c0,0.677-0.017,1.355,0.005,2.031c0.013,0.412-0.118,0.578-0.554,0.565c-0.92-0.028-1.842-0.031-2.762,0.001
			c-0.459,0.016-0.527-0.183-0.526-0.576c0.01-4.116,0.012-8.233-0.002-12.35c-0.002-0.435,0.141-0.557,0.56-0.543
			c0.866,0.028,1.735,0.041,2.599-0.004c0.541-0.028,0.698,0.153,0.69,0.682c-0.027,1.787-0.011,3.575-0.008,5.362
			C1458.993,951.363,1459.015,951.545,1459.04,951.925z"/>
		<path fill="#ffffff" d="M1443.364,958.6c-1.293,0-2.395,0.008-3.496-0.005c-0.371-0.004-0.37-0.029-0.724-0.99
			c-1.145,0.98-2.461,1.41-3.95,1.352c-2.099-0.082-3.256-1.299-3.159-3.376c0.049-1.044,0.522-1.791,1.508-2.203
			c1.166-0.487,2.405-0.616,3.64-0.76c0.488-0.057,0.966-0.135,1.413-0.338c0.382-0.174,0.586-0.466,0.524-0.908
			c-0.058-0.414-0.342-0.646-0.706-0.679c-0.812-0.073-1.716-0.343-2.184,0.698c-0.096,0.213-0.286,0.214-0.481,0.213
			c-0.921-0.003-1.843-0.023-2.764,0.007c-0.516,0.017-0.514-0.253-0.433-0.612c0.22-0.977,0.827-1.655,1.732-2.006
			c2.262-0.877,4.558-0.862,6.821-0.021c1.151,0.428,1.729,1.329,1.721,2.587c-0.01,1.707-0.005,3.414-0.001,5.121
			C1442.827,957.324,1442.728,957.987,1443.364,958.6z M1437.096,956.769c1.458-0.009,2.254-0.936,2.054-2.279
			c-0.035-0.237-0.052-0.423-0.389-0.307c-0.663,0.228-1.348,0.393-2.005,0.635c-0.526,0.194-1.01,0.489-0.843,1.183
			C1436.073,956.667,1436.629,956.731,1437.096,956.769z"/>
		<path fill="#ffffff" d="M1413.486,956.926c-1.198,1.503-2.555,2.13-4.264,1.888c-1.613-0.228-2.669-1.242-2.834-2.87
			c-0.228-2.24-0.091-4.493-0.125-6.74c-0.006-0.418,0.2-0.486,0.553-0.48c0.921,0.016,1.843,0.028,2.763-0.004
			c0.463-0.016,0.527,0.19,0.524,0.579c-0.016,1.598-0.011,3.197-0.005,4.796c0.005,1.268,0.384,1.801,1.314,1.871
			c0.983,0.074,1.631-0.501,1.699-1.733c0.087-1.594,0.065-3.195,0.037-4.792c-0.01-0.568,0.151-0.755,0.724-0.722
			c0.837,0.047,1.68,0.034,2.519,0.003c0.434-0.016,0.55,0.137,0.548,0.556c-0.015,2.926-0.015,5.852,0,8.778
			c0.002,0.421-0.116,0.575-0.549,0.554c-0.676-0.032-1.36-0.062-2.03,0.006c-0.726,0.074-0.998-0.173-0.877-0.888
			C1413.512,957.546,1413.486,957.356,1413.486,956.926z"/>
		<path fill="#ffffff" d="M1403.779,952.37c-0.298,0-0.597-0.016-0.894,0.003c-0.564,0.037-1.008,0.013-1.221-0.695
			c-0.187-0.621-0.809-0.715-1.418-0.702c-0.629,0.013-1.131,0.254-1.369,0.835c-0.505,1.23-0.489,2.491-0.008,3.721
			c0.242,0.619,0.791,0.856,1.447,0.842c0.679-0.014,1.269-0.244,1.457-0.934c0.144-0.529,0.439-0.574,0.882-0.562
			c0.84,0.024,1.682,0.035,2.52-0.003c0.521-0.024,0.572,0.172,0.475,0.617c-0.401,1.841-1.868,3.071-4.177,3.403
			c-1.025,0.147-2.055,0.1-3.063-0.176c-2.466-0.677-3.927-2.812-3.701-5.406c0.253-2.921,1.949-4.652,4.874-4.898
			c1.711-0.144,3.358,0.079,4.753,1.219c0.698,0.57,1.1,1.309,1.299,2.188c0.106,0.466-0.044,0.578-0.473,0.555
			C1404.701,952.351,1404.24,952.369,1403.779,952.37z"/>
		<path fill="#ffffff" d="M1452.572,952.369c-0.271,0-0.542-0.002-0.812,0.001c-0.584,0.005-1.134,0.108-1.351-0.741
			c-0.157-0.613-0.839-0.671-1.438-0.652c-0.633,0.021-1.123,0.301-1.343,0.876c-0.46,1.204-0.448,2.439-0.005,3.646
			c0.231,0.63,0.768,0.87,1.423,0.873c0.681,0.004,1.286-0.216,1.483-0.892c0.16-0.551,0.44-0.628,0.926-0.607
			c0.784,0.035,1.574,0.061,2.354-0.006c0.719-0.061,0.727,0.216,0.568,0.779c-0.212,0.752-0.567,1.402-1.13,1.933
			c-1.969,1.859-6.212,1.867-8.174-0.005c-1.755-1.674-1.962-3.751-1.266-5.916c0.685-2.133,2.411-3.032,4.524-3.245
			c1.448-0.146,2.866,0.024,4.155,0.78c1.004,0.59,1.67,1.426,1.906,2.595c0.084,0.417,0.036,0.611-0.439,0.583
			C1453.494,952.348,1453.032,952.369,1452.572,952.369z"/>
		<path fill="#ffffff" d="M1418.855,953.911c0-0.813-0.029-1.628,0.011-2.439c0.025-0.508-0.151-0.717-0.644-0.626
			c-0.711,0.131-0.909-0.2-0.808-0.845c0.029-0.185,0.028-0.382,0-0.568c-0.087-0.572,0.141-0.809,0.711-0.704
			c0.641,0.118,0.79-0.189,0.742-0.771c-0.047-0.565,0.009-1.138-0.017-1.706c-0.019-0.425,0.066-0.647,0.569-0.625
			c0.893,0.039,1.789,0.034,2.682,0.001c0.455-0.016,0.546,0.174,0.53,0.573c-0.025,0.65,0.021,1.302-0.016,1.951
			c-0.027,0.467,0.135,0.598,0.592,0.592c0.411-0.005,1.038-0.239,1.198,0.147c0.202,0.488,0.106,1.116,0.075,1.68
			c-0.023,0.428-0.408,0.258-0.642,0.266c-1.213,0.039-1.214,0.032-1.214,1.262c0,0.867-0.004,1.735,0.001,2.602
			c0.005,0.997,0.239,1.286,1.232,1.277c0.591-0.005,0.709,0.195,0.706,0.742c-0.01,2.042,0.009,2.039-2.062,2.044
			c-0.597,0.001-1.189-0.006-1.779-0.127c-1.165-0.238-1.758-0.849-1.829-2.045c-0.053-0.891-0.01-1.788-0.01-2.682
			C1418.874,953.911,1418.864,953.911,1418.855,953.911z"/>
		<path fill="#ffffff" d="M1428.718,950.505c0.5-1.277,1.372-1.996,2.764-2.008c0.36-0.003,0.564,0.012,0.556,0.443
			c-0.018,0.947-0.013,1.895-0.001,2.842c0.004,0.337-0.088,0.48-0.467,0.46c-0.427-0.023-0.872-0.004-1.287,0.094
			c-0.92,0.216-1.416,0.971-1.444,2.18c-0.027,1.163-0.024,2.328,0.002,3.492c0.01,0.454-0.121,0.62-0.591,0.603
			c-0.892-0.033-1.787-0.031-2.679-0.001c-0.444,0.015-0.543-0.164-0.541-0.569c0.013-2.924,0.014-5.847-0.001-8.771
			c-0.002-0.429,0.14-0.565,0.561-0.549c0.73,0.028,1.464,0.041,2.192-0.003c0.549-0.033,0.808,0.11,0.734,0.704
			c-0.042,0.333-0.008,0.675-0.008,1.013C1428.578,950.459,1428.648,950.482,1428.718,950.505z"/>
		<path fill="#ffffff" d="M1390.331,944.848c-0.636,0.238-0.994-0.01-1.384-0.295c-2.61-1.911-5.415-2.271-8.326-0.807
			c-2.909,1.462-4.39,3.934-4.332,7.158c0.058,3.233,1.707,5.568,4.602,7.015c0.198,0.099,0.601,0.094,0.496,0.402
			c-0.113,0.333-0.463,0.139-0.706,0.072c-5.763-1.589-8.166-9.048-4.414-13.696c3.391-4.201,9.049-4.647,13.057-1.014
			C1389.677,944.002,1389.954,944.407,1390.331,944.848z"/>
		<path fill="#ffffff" d="M1385.566,946.937c-2.276-0.213-4.116,0.838-4.975,2.843c-0.856,1.996-0.359,4.031,1.372,5.563
			c0.214,0.19,0.403,0.365,0.315,0.683c-2.224-0.707-3.603-3.39-3.081-5.995c0.526-2.625,3.398-4.621,5.915-4.159
			c0.491,0.09,0.646,0.278,0.584,0.728l0.008-0.014c-0.18,0.054-0.187,0.19-0.162,0.342L1385.566,946.937z"/>
		<path fill="#ffffff" d="M1382.586,961.711c-0.009-0.099-0.018-0.199-0.028-0.298c0.445,0,0.891,0,1.54,0
			C1383.478,961.646,1383.05,961.773,1382.586,961.711z"/>
	</g>
</g>
</svg>
