<svg width="364" height="7" viewBox="0 0 364 7" fill="none" xmlns="http://www.w3.org/2000/svg">
<path d="M31.1867 5.52028C32.5605 5.52028 31.8736 4.80799 32.1026 4.45184C33.7053 4.27377 32.7895 4.98606 33.4764 5.34221C34.6212 5.16413 35.3081 4.62991 36.2239 4.62991C36.2239 4.80799 36.4529 4.80799 36.2239 4.98606C37.3688 4.45184 39.6584 4.98606 40.8032 4.27377L41.0322 4.45184C40.8032 4.09569 40.8032 3.73955 40.8032 3.56147C41.4901 3.56147 41.9481 3.20532 42.177 3.56147C41.7191 3.56147 41.7191 3.73955 41.4901 3.91762L42.177 3.73955C42.8639 4.27377 41.2612 3.91762 41.2612 4.45184C42.635 4.27377 44.0087 3.73955 45.1536 3.91762C45.3825 4.45184 42.8639 4.09569 44.2377 4.62991L42.635 4.45184C43.7798 5.34221 41.7191 4.45184 42.8639 5.34221C44.9246 5.52028 45.1536 4.98606 47.2143 5.16413C47.6722 4.80799 46.9853 4.62991 47.4432 4.27377C50.4198 3.73955 49.7329 5.87643 51.7936 4.98606C52.2515 4.62991 52.4805 3.73955 54.0832 4.27377L53.6253 4.98606C55.686 4.98606 54.7701 4.09569 56.8308 4.45184C56.3729 4.62991 55.228 4.62991 55.686 4.80799C57.0598 5.34221 56.6018 4.45184 57.7467 4.45184L57.9756 4.98606C60.0363 4.98606 62.326 4.45184 64.6156 4.45184C64.3866 4.62991 64.1577 4.80799 64.6156 4.98606C67.5921 4.62991 70.7977 5.16413 73.7742 5.52028L74.919 4.98606C75.148 4.98606 75.377 5.16413 75.148 5.34221C76.2928 5.52028 75.148 4.98606 75.8349 4.80799C76.5218 4.80799 76.7507 5.16413 76.2928 5.34221C78.1245 4.98606 81.788 4.45184 83.8487 4.98606L83.3907 5.16413C84.5356 5.34221 84.7645 3.91762 86.1383 4.45184L85.9094 4.62991C89.3438 4.80799 93.2362 4.45184 95.7549 5.16413C96.2128 4.45184 99.1893 5.52028 99.4183 4.45184C101.479 4.98606 100.792 5.16413 103.54 5.52028C104.227 5.52028 104.684 4.80799 105.6 4.80799V5.34221L106.745 4.80799L107.432 5.52028L108.348 5.34221C108.119 5.34221 107.661 5.16413 107.661 4.98606C109.035 4.80799 110.867 5.34221 110.867 5.69835L114.072 5.34221C114.072 5.52028 113.385 5.69835 113.156 5.69835C114.759 5.16413 113.385 6.23258 114.988 5.69835C114.759 5.52028 115.217 5.34221 115.217 5.34221C115.904 5.69835 117.735 5.69836 119.109 5.52028L118.88 5.87643C121.17 5.87643 123.689 5.69835 126.436 5.69835C125.52 5.52028 125.749 4.80799 126.436 4.80799L126.665 5.34221C127.123 4.98606 125.749 5.16413 126.894 4.62991C127.81 4.62991 127.581 5.34221 126.894 5.52028L128.268 5.34221C128.268 5.52028 128.039 5.52028 128.039 5.87643C128.497 5.52028 130.1 6.41065 130.786 5.87643V6.0545C133.534 6.0545 134.679 5.87643 136.74 5.87643C136.74 5.34221 137.655 5.52028 138.342 5.16413C139.945 5.34221 141.777 5.69835 143.609 5.69835C144.982 5.52028 144.066 5.34221 144.524 4.98606C144.524 5.52028 146.585 5.34221 145.44 5.69835C147.73 5.69835 148.417 5.69835 151.164 5.34221C150.935 5.16413 150.478 4.98606 150.706 4.98606C151.164 4.98606 151.851 5.16413 151.851 5.34221H151.622C154.828 4.62991 159.178 6.7668 161.697 5.69835H161.468L164.215 5.16413C165.36 5.16413 163.529 5.52028 164.444 5.87643C167.421 5.16413 169.024 6.0545 171.313 5.52028C173.145 6.94487 177.953 5.52028 180.243 6.41065L180.014 6.0545C180.701 5.69835 180.701 6.23258 181.159 6.23258C181.159 6.0545 180.472 5.87643 180.93 5.69835C186.425 5.34221 192.149 6.23258 197.873 6.58872C199.934 6.7668 199.018 4.98606 201.537 5.69835V6.41065C205.658 5.69836 210.008 6.41065 214.13 5.87643C213.901 6.0545 213.901 6.23258 213.443 6.23258C214.359 6.58872 216.648 6.23258 216.648 5.87643C217.335 5.87643 216.877 6.23258 217.106 6.41065C218.022 6.58872 219.167 5.87643 219.625 6.23258C219.625 6.23258 219.396 6.41065 219.167 6.41065C219.625 6.23258 221.686 6.41065 221.228 6.0545C222.83 6.23258 224.204 5.87643 225.349 6.23258C226.036 5.69835 227.868 6.58872 228.097 5.69835C227.868 6.58872 230.844 6.41065 231.76 6.0545C231.531 6.23258 232.676 6.23258 232.218 6.58872C233.363 6.58872 234.279 6.41065 234.05 6.0545C236.11 6.94487 238.171 5.34221 239.316 6.58872C242.521 6.23258 245.498 5.87643 248.475 5.69835C248.475 6.58872 245.269 5.69835 245.269 6.58872C248.017 6.23258 249.619 5.52028 252.367 5.87643C253.054 6.0545 251.909 6.23258 251.68 6.41065C254.428 6.0545 256.946 6.58872 259.465 6.0545C259.465 6.0545 259.236 6.23258 259.007 6.23258C259.465 6.23258 260.152 6.41065 260.152 6.0545L259.694 6.23258C259.007 5.69835 261.526 5.16413 261.755 4.80799C260.839 5.87643 264.273 5.16413 262.899 6.41065C263.128 6.41065 263.586 6.23258 263.586 5.87643C264.044 5.87643 264.273 6.0545 263.815 6.41065C265.647 6.23258 264.96 5.87643 266.563 5.87643C266.563 6.0545 266.334 6.0545 266.105 6.41065C267.021 6.0545 267.708 5.69835 269.081 5.87643C269.081 6.0545 269.081 6.0545 268.852 6.0545C271.142 6.0545 272.745 5.16413 275.263 5.52028C274.577 6.23258 276.179 5.69836 276.179 6.41065L277.553 6.23258L277.095 5.87643C278.24 5.87643 279.385 5.34221 280.301 5.69835L279.385 5.52028L281.674 5.34221L280.53 5.16413C281.674 4.80799 280.301 4.27377 281.903 4.45184C281.674 4.45184 283.048 4.45184 283.735 4.80799C284.422 4.62991 284.88 4.45184 285.796 4.62991C286.025 4.80799 285.567 5.34221 285.796 5.52028C286.483 4.98606 288.543 5.34221 289.23 4.80799C289.001 4.98606 289.001 5.34221 289.001 5.34221L289.459 4.80799C289.917 4.98606 290.146 4.98606 289.917 5.34221C291.52 5.52028 289.459 4.45184 291.291 4.80799C291.062 4.80799 291.291 4.98606 290.833 4.98606C292.894 5.16413 294.725 4.80799 296.328 4.98606C296.786 5.69835 294.725 5.16413 295.412 5.69835C297.931 5.52028 300.908 4.98606 303.426 5.16413H302.968C303.426 4.27377 304.8 5.69835 306.174 5.16413C305.945 5.16413 305.716 5.69836 305.945 5.52028C307.776 5.69836 309.379 5.34221 312.127 4.98606L311.898 5.16413C312.814 5.34221 314.645 5.34221 315.561 5.34221C315.79 5.16413 316.477 5.16413 316.248 4.80799C319.683 6.23258 322.659 4.09569 325.636 5.34221C325.178 5.34221 324.72 5.52028 325.178 5.52028L327.696 5.34221C327.467 4.98606 327.467 5.16413 326.781 4.80799C327.01 4.62991 327.925 4.45184 328.383 4.45184C327.238 4.62991 328.383 5.16413 328.841 5.34221C328.841 5.16413 328.841 5.16413 328.841 4.98606C330.215 5.69835 329.07 4.09569 330.902 4.62991V4.80799C331.589 4.62991 332.276 4.45184 332.963 4.45184C333.192 4.98606 332.276 4.62991 332.276 4.98606C333.421 4.98606 334.336 4.09569 335.252 4.62991C334.794 4.80799 334.107 4.80799 333.65 4.80799C334.565 5.34221 334.794 5.16413 335.481 5.34221L337.313 5.52028L336.626 5.69835C338 4.45184 339.374 5.52028 340.976 4.62991C339.374 5.34221 340.747 4.98606 340.518 5.69835C340.976 5.87643 341.663 6.0545 341.434 6.23258C342.35 5.87643 342.808 6.58872 343.953 5.87643C343.953 6.0545 344.869 5.87643 344.64 6.41065C345.785 6.23258 344.411 6.0545 344.411 5.87643C346.014 5.34221 348.303 6.58872 350.593 5.87643C352.654 5.52028 353.112 4.98606 354.943 4.62991C355.63 4.98606 354.485 5.34221 354.485 5.34221C355.63 5.52028 356.317 5.52028 357.233 5.34221C357.004 5.52028 357.233 5.69835 357.462 5.87643C358.149 5.87643 357.92 5.16413 359.065 5.52028C358.836 5.69836 358.607 6.0545 358.378 6.23258C359.294 6.0545 360.209 5.69836 361.125 5.52028C361.354 5.87643 360.438 6.0545 360.209 6.23258C361.354 6.0545 362.957 6.0545 363.415 5.52028L362.728 5.34221C363.186 5.34221 362.957 5.69835 362.728 5.87643C361.812 6.23258 361.354 5.69836 361.354 5.52028L362.041 5.34221C361.354 4.27377 359.294 5.52028 357.92 5.34221L358.607 4.62991L357.233 5.16413C357.004 4.98606 356.775 4.62991 357.462 4.45184C356.546 4.09569 356.546 4.62991 355.859 4.27377V4.09569L354.943 4.27377C355.172 4.09569 354.714 3.73955 355.401 3.91762C353.569 3.56147 352.654 4.45184 351.967 3.91762H352.196C349.906 4.09569 351.967 4.45184 350.135 5.16413L348.99 3.73955L348.761 4.27377C348.532 4.27377 348.074 4.27377 348.074 3.91762C347.158 4.27377 348.303 4.09569 347.616 4.45184C346.472 3.91762 344.411 4.62991 344.182 3.73955C343.724 4.09569 345.327 4.09569 343.953 4.27377C343.495 3.3834 342.579 4.45184 341.434 3.91762C341.663 3.3834 342.808 3.73955 341.663 3.20532C340.976 4.09569 339.603 3.02725 338.687 3.20532C338.687 3.91762 336.626 3.3834 335.252 3.73955C335.252 3.56147 332.276 3.3834 330.902 3.20532V3.02725C330.673 3.73955 329.07 3.56147 328.154 3.73955C328.154 3.3834 328.383 3.20532 329.07 3.02725H328.154C327.925 3.20532 327.696 3.3834 327.01 3.3834L327.238 2.84918C325.865 2.84918 324.491 3.3834 322.888 3.02725C322.888 3.56147 324.262 4.27377 322.43 4.62991C322.43 4.45184 322.201 3.91762 322.888 3.91762C322.659 3.91762 322.43 4.09569 321.972 4.09569L322.659 3.73955C321.972 3.56147 322.201 4.09569 321.514 4.09569C321.514 3.73955 321.056 3.91762 321.056 3.56147C321.285 3.56147 321.514 3.73955 321.743 3.56147C321.056 3.56147 320.141 3.20532 319.912 3.02725C319.912 3.20532 319.912 3.56147 319.454 3.56147C318.08 3.56147 318.996 3.20532 318.309 3.02725C318.08 3.20532 317.164 3.02725 317.164 3.56147C316.706 3.56147 316.706 3.3834 316.477 3.20532C315.79 3.3834 313.272 3.20532 313.959 3.73955H314.187C311.898 4.27377 309.379 3.3834 307.09 3.56147V3.3834C305.716 3.56147 304.113 3.56147 303.197 3.91762C302.739 3.91762 302.281 3.56147 302.51 3.3834C301.365 3.56147 301.365 3.73955 299.763 3.3834C300.908 3.02725 299.305 3.02725 300.908 3.20532C299.534 3.02725 299.305 2.84918 297.931 3.20532C298.389 2.6711 297.015 2.6711 296.328 2.84918L297.244 3.20532C296.557 3.20532 295.87 3.20532 295.183 3.20532L295.641 2.6711C292.894 1.95881 290.604 3.91762 288.543 2.6711C287.857 3.02725 289.917 3.02725 289.459 3.3834C288.085 3.3834 286.941 2.49303 286.483 2.49303C284.651 2.13688 284.88 3.3834 283.048 3.02725C283.277 3.20532 283.506 3.73955 282.132 3.91762C280.759 3.91762 280.53 3.02725 281.445 2.84918C281.674 2.84918 281.903 2.84918 281.903 3.02725C282.361 3.02725 282.819 2.84918 282.361 2.6711L282.132 2.84918C281.445 2.6711 279.843 2.6711 280.072 2.31496C279.156 2.49303 279.614 2.6711 280.301 2.84918C278.698 2.49303 277.782 2.84918 276.179 2.6711C276.408 2.84918 276.637 3.02725 276.408 3.02725C273.89 2.6711 275.263 3.3834 273.661 3.56147C272.745 3.20532 274.119 2.84918 272.287 3.02725C271.371 2.84918 272.058 2.49303 272.516 2.31496C270.913 2.6711 269.768 1.95881 268.852 1.95881L269.539 1.78074C269.081 1.95881 268.623 1.95881 268.166 1.95881L268.623 2.31496C268.166 2.31496 267.708 2.31496 267.708 2.13688C267.25 2.49303 268.166 2.84918 267.021 3.20532C266.334 3.02725 265.189 3.3834 264.96 2.84918C267.021 3.02725 264.731 2.31496 266.334 2.13688C266.105 2.13688 265.647 2.13688 265.189 2.13688C265.189 2.13688 265.189 1.95881 265.418 1.95881C263.586 1.42459 264.502 2.6711 262.67 2.49303C262.899 2.13688 262.212 1.95881 261.983 1.95881C262.67 1.95881 262.441 2.49303 261.526 2.6711C260.381 2.49303 260.152 2.84918 259.465 2.84918L260.152 3.02725C259.923 3.3834 259.236 3.3834 258.32 3.3834C258.32 3.20532 259.007 3.20532 258.778 3.02725C257.862 3.56147 256.488 2.49303 255.343 2.84918C254.657 2.6711 255.343 2.31496 254.657 2.13688C253.054 2.49303 253.054 1.78074 251.451 1.95881C251.909 2.31496 251.909 2.31496 250.764 2.6711L253.283 2.31496L251.68 2.84918C252.367 2.84918 253.283 2.6711 253.741 2.6711C252.825 3.02725 253.054 2.84918 253.283 3.20532C252.138 2.49303 251.222 3.56147 249.848 3.20532V2.13688C248.017 1.60266 246.414 2.6711 244.124 2.31496L244.811 2.49303C244.582 2.84918 243.208 2.49303 242.521 2.6711C242.521 2.31496 242.064 2.13688 241.835 1.95881C241.835 2.13688 240.003 1.95881 239.774 2.6711L238.629 2.13688C236.568 1.95881 236.339 3.20532 234.508 3.02725C235.195 2.6711 234.279 2.31496 235.424 2.13688C234.737 2.13688 234.279 2.13688 234.279 2.31496C233.821 2.13688 232.447 2.84918 231.989 2.49303C231.76 2.6711 231.531 3.02725 230.844 3.02725V2.84918C230.844 3.02725 229.699 3.02725 230.386 3.3834C228.555 2.31496 224.891 3.3834 223.288 2.49303C221.915 2.6711 220.312 2.6711 218.938 2.6711C218.938 2.49303 218.938 2.49303 219.167 2.49303C217.335 2.13688 218.022 3.56147 216.19 3.20532C215.275 2.6711 217.335 2.84918 216.648 2.6711C216.419 1.42459 214.359 2.84918 212.985 2.13688H213.214C212.298 1.78074 210.695 2.49303 209.093 2.49303V2.31496C207.948 2.84918 205.887 3.02725 204.284 3.20532C204.742 2.6711 204.971 3.02725 204.742 2.49303C204.055 2.49303 204.971 3.20532 203.597 3.3834C203.139 3.20532 202.224 2.84918 201.995 2.49303H203.368C202.682 1.78074 201.537 2.49303 200.85 2.31496V1.95881C198.789 1.95881 198.789 2.6711 196.499 2.6711L196.957 3.02725C195.813 3.73955 196.042 2.6711 194.668 3.20532L194.21 2.49303C193.523 2.6711 191.462 3.20532 190.088 3.20532C191.004 2.6711 192.607 2.49303 193.523 2.13688C192.836 2.13688 190.775 2.13688 190.317 2.49303C190.546 2.49303 191.004 2.31496 191.462 2.31496C190.546 2.84918 189.173 3.20532 187.57 3.02725C187.799 1.60266 183.448 2.6711 182.304 1.60266C179.556 2.13688 176.808 1.42459 173.603 1.42459C174.748 2.49303 172.687 1.42459 172.916 2.49303C172.229 2.49303 171.771 2.49303 171.771 2.49303L169.482 1.78074C169.024 1.42459 170.169 1.60266 170.169 1.24652C168.566 1.06844 169.482 0.712294 168.337 0.534221C168.566 0.890368 167.65 1.06844 166.734 0.890368L168.108 1.42459C165.818 1.95881 166.047 0.534221 163.757 1.06844L164.444 0.712294C163.3 0.890368 160.094 0.712294 158.949 1.60266C158.72 1.42459 158.491 1.24652 158.949 1.06844C156.202 0.890368 152.538 1.95881 150.477 1.42459L150.706 1.24652C150.249 1.24652 149.791 1.78074 149.104 1.42459C149.104 1.24652 149.333 1.24652 149.104 1.06844C148.875 1.24652 147.73 1.60266 147.043 1.42459L147.73 1.06844C144.982 0.712294 143.38 1.78074 141.09 1.95881C141.09 1.24652 138.8 0.890368 137.884 0.712294V0.534221C134.679 0.356147 132.389 1.06844 129.413 1.42459C127.581 0.534221 123.002 1.06844 120.025 0.534221C120.483 0.712294 120.025 1.06844 119.338 1.24652C118.651 1.06844 117.278 1.78074 117.507 1.06844H117.735C117.278 0.356147 115.675 0.534221 114.53 0.534221V1.78074C111.553 0.356147 106.745 2.13688 105.142 0.890368C104.456 1.06844 103.54 1.06844 102.853 1.42459V0.890368C100.792 0.712294 99.8762 0.712294 97.3576 0.712294L97.8155 0.356147C96.4417 0.356147 95.9838 1.78074 94.839 1.78074L94.3811 1.06844C92.0914 1.06844 89.5728 0.356147 87.2831 1.06844C87.2831 0.890368 87.2831 0.712294 87.7411 0.712294C86.5962 0.712294 83.3907 0.178074 83.8487 1.24652C83.8487 0.534221 81.3301 1.24652 80.1852 1.42459L80.4142 0.890368C79.2694 1.60266 79.2694 1.60266 77.6666 1.78074C77.2087 1.78074 77.4376 1.42459 77.8956 1.42459C76.7508 1.24652 76.9797 1.95881 75.377 1.60266L75.8349 1.24652C74.6901 1.24652 74.6901 1.42459 74.0032 1.78074C73.3163 1.95881 71.7135 1.60266 71.4846 1.24652C71.2556 1.60266 70.5687 1.95881 69.8818 1.78074C69.8818 1.60266 70.1108 1.42459 70.1108 1.42459C68.0501 1.06844 66.9053 1.95881 65.5315 1.42459C65.5315 1.24652 65.3025 1.24652 65.3025 1.06844C66.9053 1.06844 68.279 1.06844 68.0501 1.24652C68.0501 0.712294 66.6763 0.712294 67.8211 0C66.6763 0.356147 64.8446 1.06844 63.6997 0.890368C63.6997 0.890368 63.4708 0.890368 63.4708 0.712294H63.6997C63.4708 0.712294 63.2418 0.712294 62.7839 0.712294C62.326 0.712294 62.097 0.534221 61.6391 0.534221C61.4101 0.178074 60.0363 0.356147 59.3494 0.356147C59.3494 0.890368 58.4335 0.712294 59.3494 1.24652C59.3494 1.24652 59.5784 1.24652 59.8073 1.24652H60.0363C60.4942 1.24652 60.9522 1.24652 61.6391 1.24652C61.1811 1.42459 60.4942 1.78074 59.8073 1.42459C59.5784 1.78074 59.1204 2.13688 58.8915 2.31496C57.9756 1.60266 56.1439 1.24652 55.9149 0.712294C53.8542 1.06844 51.1067 0.890368 49.9618 1.78074C49.2749 1.95881 49.2749 1.42459 49.046 1.42459C49.2749 1.24652 49.7329 1.42459 49.9618 1.24652C48.817 1.42459 46.5274 1.24652 46.2984 1.95881C44.9246 1.60266 47.2143 1.42459 45.1536 1.42459L45.3825 1.24652C41.4901 0.178074 38.9715 2.84918 34.6212 1.42459C34.8501 1.42459 35.0791 1.60266 35.0791 1.60266C30.9577 1.24652 25.4626 2.31496 20.6543 1.42459C19.2805 1.24652 19.0516 1.60266 18.3647 1.95881L17.9067 1.42459L16.5329 1.95881C14.4723 2.49303 12.8695 0.712294 10.3509 1.42459L10.5799 1.78074C9.66399 1.78074 7.60331 2.13688 7.83227 1.60266C7.83227 1.60266 7.60331 1.95881 7.14538 1.78074V1.42459L4.85573 1.95881C3.02401 1.78074 5.08469 0.890368 2.56608 0.712294C1.65022 0.890368 -0.181505 1.60266 0.0474596 1.78074C0.50539 1.78074 0.96332 1.95881 0.96332 2.31496L0.276425 2.49303C0.0474596 3.20532 -0.639435 4.09569 1.65022 4.62991L3.25297 4.09569L3.7109 4.45184L2.33711 4.62991C3.02401 4.98606 3.48194 4.62991 3.93987 4.45184C4.16883 4.62991 4.3978 4.80799 4.62676 4.80799L6.22952 4.09569C6.45848 4.45184 5.54262 4.80799 6.45848 4.98606C7.14538 4.62991 5.77159 4.27377 6.91641 3.91762C7.60331 4.27377 7.37434 4.62991 8.2902 4.27377C8.51917 4.45184 8.2902 4.62991 7.83227 4.62991C8.51917 4.45184 9.89296 4.45184 10.1219 4.09569C10.8088 4.62991 12.6405 3.91762 12.6405 4.80799C12.8695 4.62991 14.0143 4.27377 14.7012 4.09569C13.3274 4.98606 17.2198 4.09569 16.9909 5.16413C17.9067 4.27377 20.4254 4.80799 22.0281 4.27377C22.0281 4.27377 21.7991 4.45184 21.5702 4.45184C22.486 4.45184 22.715 4.80799 23.4019 4.98606C23.6309 4.27377 25.0047 4.09569 25.6915 3.73955C26.8364 4.45184 25.0047 4.62991 25.2336 5.16413C25.2336 4.62991 27.2943 4.62991 26.8364 4.09569C27.7522 4.45184 27.5233 4.27377 27.9812 4.80799C28.2102 3.91762 28.8971 4.62991 29.584 4.09569C30.9577 4.45184 29.8129 4.98606 31.4157 4.62991C32.3315 5.34221 31.1867 5.52028 31.1867 5.52028ZM64.3866 4.27377C64.1577 4.27377 63.9287 4.27377 63.6997 4.27377C63.6997 4.27377 63.9287 4.27377 64.3866 4.27377ZM67.1342 4.27377C66.9053 4.27377 66.4473 4.27377 65.9894 4.27377C65.9894 4.09569 65.9894 3.91762 66.2184 3.91762C65.9894 4.09569 66.6763 4.09569 67.1342 4.27377ZM61.1811 0.712294C61.6391 0.712294 61.868 0.712294 61.868 0.890368C61.6391 0.890368 61.4101 0.890368 61.1811 0.890368C61.1811 0.890368 61.1811 0.890368 61.1811 0.712294Z" fill="#D35433"/>
</svg>
